G04 #@! TF.GenerationSoftware,KiCad,Pcbnew,9.0.5*
G04 #@! TF.CreationDate,2025-10-28T00:47:50+01:00*
G04 #@! TF.ProjectId,DoorControlModule,446f6f72-436f-46e7-9472-6f6c4d6f6475,rev?*
G04 #@! TF.SameCoordinates,Original*
G04 #@! TF.FileFunction,Soldermask,Bot*
G04 #@! TF.FilePolarity,Negative*
%FSLAX46Y46*%
G04 Gerber Fmt 4.6, Leading zero omitted, Abs format (unit mm)*
G04 Created by KiCad (PCBNEW 9.0.5) date 2025-10-28 00:47:50*
%MOMM*%
%LPD*%
G01*
G04 APERTURE LIST*
G04 Aperture macros list*
%AMRoundRect*
0 Rectangle with rounded corners*
0 $1 Rounding radius*
0 $2 $3 $4 $5 $6 $7 $8 $9 X,Y pos of 4 corners*
0 Add a 4 corners polygon primitive as box body*
4,1,4,$2,$3,$4,$5,$6,$7,$8,$9,$2,$3,0*
0 Add four circle primitives for the rounded corners*
1,1,$1+$1,$2,$3*
1,1,$1+$1,$4,$5*
1,1,$1+$1,$6,$7*
1,1,$1+$1,$8,$9*
0 Add four rect primitives between the rounded corners*
20,1,$1+$1,$2,$3,$4,$5,0*
20,1,$1+$1,$4,$5,$6,$7,0*
20,1,$1+$1,$6,$7,$8,$9,0*
20,1,$1+$1,$8,$9,$2,$3,0*%
G04 Aperture macros list end*
%ADD10C,0.000000*%
%ADD11C,1.900000*%
%ADD12C,2.000000*%
%ADD13C,4.000000*%
%ADD14C,2.200000*%
%ADD15RoundRect,0.150000X-0.075000X0.505000X-0.075000X-0.505000X0.075000X-0.505000X0.075000X0.505000X0*%
%ADD16RoundRect,0.300000X1.700000X1.025000X-1.700000X1.025000X-1.700000X-1.025000X1.700000X-1.025000X0*%
%ADD17RoundRect,0.237500X0.237500X-0.250000X0.237500X0.250000X-0.237500X0.250000X-0.237500X-0.250000X0*%
%ADD18RoundRect,0.250000X0.850000X-0.350000X0.850000X0.350000X-0.850000X0.350000X-0.850000X-0.350000X0*%
%ADD19RoundRect,0.250000X2.950000X-2.650000X2.950000X2.650000X-2.950000X2.650000X-2.950000X-2.650000X0*%
%ADD20RoundRect,0.112500X-0.625000X0.112500X-0.625000X-0.112500X0.625000X-0.112500X0.625000X0.112500X0*%
%ADD21RoundRect,0.237500X-0.237500X0.300000X-0.237500X-0.300000X0.237500X-0.300000X0.237500X0.300000X0*%
%ADD22RoundRect,0.237500X0.250000X0.237500X-0.250000X0.237500X-0.250000X-0.237500X0.250000X-0.237500X0*%
%ADD23RoundRect,0.237500X-0.250000X-0.237500X0.250000X-0.237500X0.250000X0.237500X-0.250000X0.237500X0*%
%ADD24RoundRect,0.106250X-0.293750X0.106250X-0.293750X-0.106250X0.293750X-0.106250X0.293750X0.106250X0*%
%ADD25RoundRect,0.237500X-0.300000X-0.237500X0.300000X-0.237500X0.300000X0.237500X-0.300000X0.237500X0*%
%ADD26RoundRect,0.250000X-0.250000X0.250000X-0.250000X-0.250000X0.250000X-0.250000X0.250000X0.250000X0*%
%ADD27RoundRect,0.250000X-0.450000X0.350000X-0.450000X-0.350000X0.450000X-0.350000X0.450000X0.350000X0*%
%ADD28RoundRect,0.237500X0.300000X0.237500X-0.300000X0.237500X-0.300000X-0.237500X0.300000X-0.237500X0*%
%ADD29RoundRect,0.225000X0.375000X-0.225000X0.375000X0.225000X-0.375000X0.225000X-0.375000X-0.225000X0*%
%ADD30RoundRect,0.250000X0.450000X-0.350000X0.450000X0.350000X-0.450000X0.350000X-0.450000X-0.350000X0*%
%ADD31RoundRect,0.106250X0.343750X-0.106250X0.343750X0.106250X-0.343750X0.106250X-0.343750X-0.106250X0*%
%ADD32RoundRect,0.237500X-0.237500X0.250000X-0.237500X-0.250000X0.237500X-0.250000X0.237500X0.250000X0*%
%ADD33RoundRect,0.106250X0.293750X-0.106250X0.293750X0.106250X-0.293750X0.106250X-0.293750X-0.106250X0*%
%ADD34RoundRect,0.250000X-0.475000X0.337500X-0.475000X-0.337500X0.475000X-0.337500X0.475000X0.337500X0*%
%ADD35RoundRect,0.112500X-0.650000X0.112500X-0.650000X-0.112500X0.650000X-0.112500X0.650000X0.112500X0*%
%ADD36RoundRect,0.250000X-1.125000X-1.800000X1.125000X-1.800000X1.125000X1.800000X-1.125000X1.800000X0*%
%ADD37RoundRect,0.250000X0.250000X-0.250000X0.250000X0.250000X-0.250000X0.250000X-0.250000X-0.250000X0*%
%ADD38RoundRect,0.250000X-0.337500X-0.475000X0.337500X-0.475000X0.337500X0.475000X-0.337500X0.475000X0*%
%ADD39RoundRect,0.106250X-0.343750X0.106250X-0.343750X-0.106250X0.343750X-0.106250X0.343750X0.106250X0*%
%ADD40RoundRect,0.237500X0.237500X-0.300000X0.237500X0.300000X-0.237500X0.300000X-0.237500X-0.300000X0*%
%ADD41RoundRect,0.112500X-0.587500X0.112500X-0.587500X-0.112500X0.587500X-0.112500X0.587500X0.112500X0*%
G04 APERTURE END LIST*
D10*
G36*
X132048000Y-89764000D02*
G01*
X131538000Y-89764000D01*
X131538000Y-88004000D01*
X132048000Y-88004000D01*
X132048000Y-89764000D01*
G37*
G36*
X132948000Y-89764000D02*
G01*
X132438000Y-89764000D01*
X132438000Y-88004000D01*
X132948000Y-88004000D01*
X132948000Y-89764000D01*
G37*
G36*
X133848000Y-89764000D02*
G01*
X133338000Y-89764000D01*
X133338000Y-88004000D01*
X133848000Y-88004000D01*
X133848000Y-89764000D01*
G37*
G36*
X134748000Y-89764000D02*
G01*
X134238000Y-89764000D01*
X134238000Y-88004000D01*
X134748000Y-88004000D01*
X134748000Y-89764000D01*
G37*
G36*
X135648000Y-89764000D02*
G01*
X135138000Y-89764000D01*
X135138000Y-88004000D01*
X135648000Y-88004000D01*
X135648000Y-89764000D01*
G37*
G36*
X136548000Y-89764000D02*
G01*
X136038000Y-89764000D01*
X136038000Y-88004000D01*
X136548000Y-88004000D01*
X136548000Y-89764000D01*
G37*
G36*
X137448000Y-89764000D02*
G01*
X136938000Y-89764000D01*
X136938000Y-88004000D01*
X137448000Y-88004000D01*
X137448000Y-89764000D01*
G37*
G36*
X137793000Y-94034000D02*
G01*
X137493000Y-94034000D01*
X137493000Y-95884000D01*
X138043000Y-95884000D01*
X138043000Y-97134000D01*
X130943000Y-97134000D01*
X130943000Y-95884000D01*
X131493000Y-95884000D01*
X131493000Y-94034000D01*
X131193000Y-94034000D01*
X131193000Y-91334000D01*
X137793000Y-91334000D01*
X137793000Y-94034000D01*
G37*
G36*
X144240000Y-89764000D02*
G01*
X143730000Y-89764000D01*
X143730000Y-88004000D01*
X144240000Y-88004000D01*
X144240000Y-89764000D01*
G37*
G36*
X145140000Y-89764000D02*
G01*
X144630000Y-89764000D01*
X144630000Y-88004000D01*
X145140000Y-88004000D01*
X145140000Y-89764000D01*
G37*
G36*
X146040000Y-89764000D02*
G01*
X145530000Y-89764000D01*
X145530000Y-88004000D01*
X146040000Y-88004000D01*
X146040000Y-89764000D01*
G37*
G36*
X146940000Y-89764000D02*
G01*
X146430000Y-89764000D01*
X146430000Y-88004000D01*
X146940000Y-88004000D01*
X146940000Y-89764000D01*
G37*
G36*
X147840000Y-89764000D02*
G01*
X147330000Y-89764000D01*
X147330000Y-88004000D01*
X147840000Y-88004000D01*
X147840000Y-89764000D01*
G37*
G36*
X148740000Y-89764000D02*
G01*
X148230000Y-89764000D01*
X148230000Y-88004000D01*
X148740000Y-88004000D01*
X148740000Y-89764000D01*
G37*
G36*
X149640000Y-89764000D02*
G01*
X149130000Y-89764000D01*
X149130000Y-88004000D01*
X149640000Y-88004000D01*
X149640000Y-89764000D01*
G37*
G36*
X149985000Y-94034000D02*
G01*
X149685000Y-94034000D01*
X149685000Y-95884000D01*
X150235000Y-95884000D01*
X150235000Y-97134000D01*
X143135000Y-97134000D01*
X143135000Y-95884000D01*
X143685000Y-95884000D01*
X143685000Y-94034000D01*
X143385000Y-94034000D01*
X143385000Y-91334000D01*
X149985000Y-91334000D01*
X149985000Y-94034000D01*
G37*
D11*
X146700000Y-109100000D03*
X146700000Y-106600000D03*
X146700000Y-104100000D03*
X146700000Y-101600000D03*
X143000000Y-109100000D03*
X143000000Y-106600000D03*
X143000000Y-104100000D03*
X143000000Y-101600000D03*
X139500000Y-109100000D03*
X139500000Y-106600000D03*
X139500000Y-104100000D03*
X139500000Y-101600000D03*
X137000000Y-109100000D03*
X137000000Y-106600000D03*
X137000000Y-104100000D03*
X137000000Y-101600000D03*
X134500000Y-109100000D03*
X134500000Y-106600000D03*
X134500000Y-104100000D03*
X134500000Y-101600000D03*
X132000000Y-109100000D03*
X132000000Y-106600000D03*
X132000000Y-104100000D03*
X132000000Y-101600000D03*
X129500000Y-109100000D03*
X129500000Y-106600000D03*
X129500000Y-104100000D03*
X129500000Y-101600000D03*
X127000000Y-109100000D03*
X127000000Y-106600000D03*
X127000000Y-104100000D03*
X127000000Y-101600000D03*
D12*
X167750000Y-86200000D03*
D13*
X157250000Y-104450000D03*
D14*
X153150000Y-100600000D03*
X120550000Y-100600000D03*
D13*
X116450000Y-104450000D03*
D12*
X105950000Y-55200000D03*
D15*
X128352000Y-60904000D03*
X129002000Y-60904000D03*
X129652000Y-60904000D03*
X130302000Y-60904000D03*
X130952000Y-60904000D03*
X131602000Y-60904000D03*
X132252000Y-60904000D03*
X132252000Y-66604000D03*
X131602000Y-66604000D03*
X130952000Y-66604000D03*
X130302000Y-66604000D03*
X129652000Y-66604000D03*
X129002000Y-66604000D03*
X128352000Y-66604000D03*
D16*
X130302000Y-63754000D03*
D17*
X128524000Y-94130500D03*
X128524000Y-92305500D03*
D18*
X150266000Y-113786000D03*
D19*
X156566000Y-111506000D03*
D18*
X150266000Y-109226000D03*
D17*
X146812000Y-70635500D03*
X146812000Y-68810500D03*
D20*
X119744000Y-97962000D03*
X119744000Y-97312000D03*
X119744000Y-96662000D03*
X119744000Y-96012000D03*
X119744000Y-95362000D03*
X119744000Y-94712000D03*
X119744000Y-94062000D03*
X125620000Y-94062000D03*
X125620000Y-94712000D03*
X125620000Y-95362000D03*
X125620000Y-96012000D03*
X125620000Y-96662000D03*
X125620000Y-97312000D03*
X125620000Y-97962000D03*
D21*
X117094000Y-96673500D03*
X117094000Y-98398500D03*
D22*
X148486500Y-84836000D03*
X146661500Y-84836000D03*
D23*
X146661500Y-83312000D03*
X148486500Y-83312000D03*
D24*
X115100000Y-112376000D03*
X115100000Y-113176000D03*
X113500000Y-113176000D03*
X113500000Y-112376000D03*
D25*
X144933500Y-81788000D03*
X146658500Y-81788000D03*
D26*
X138176000Y-82316000D03*
X138176000Y-84816000D03*
D17*
X128524000Y-97940500D03*
X128524000Y-96115500D03*
D23*
X143105500Y-83312000D03*
X144930500Y-83312000D03*
X134469500Y-83312000D03*
X136294500Y-83312000D03*
D22*
X150137500Y-57277000D03*
X148312500Y-57277000D03*
D27*
X131318000Y-112284000D03*
X131318000Y-114284000D03*
D28*
X138276500Y-86360000D03*
X136551500Y-86360000D03*
D29*
X152019000Y-106552000D03*
X152019000Y-103252000D03*
D15*
X137242000Y-60904000D03*
X137892000Y-60904000D03*
X138542000Y-60904000D03*
X139192000Y-60904000D03*
X139842000Y-60904000D03*
X140492000Y-60904000D03*
X141142000Y-60904000D03*
X141142000Y-66604000D03*
X140492000Y-66604000D03*
X139842000Y-66604000D03*
X139192000Y-66604000D03*
X138542000Y-66604000D03*
X137892000Y-66604000D03*
X137242000Y-66604000D03*
D16*
X139192000Y-63754000D03*
D30*
X135382000Y-114284000D03*
X135382000Y-112284000D03*
D31*
X129452000Y-71177000D03*
X129452000Y-70377000D03*
X129452000Y-69577000D03*
X129452000Y-68777000D03*
X131152000Y-68777000D03*
X131152000Y-69577000D03*
X131152000Y-70377000D03*
X131152000Y-71177000D03*
D32*
X141732000Y-68810500D03*
X141732000Y-70635500D03*
D33*
X113500000Y-110382000D03*
X113500000Y-109582000D03*
X115100000Y-109582000D03*
X115100000Y-110382000D03*
D15*
X146132000Y-73604000D03*
X146782000Y-73604000D03*
X147432000Y-73604000D03*
X148082000Y-73604000D03*
X148732000Y-73604000D03*
X149382000Y-73604000D03*
X150032000Y-73604000D03*
X150032000Y-79304000D03*
X149382000Y-79304000D03*
X148732000Y-79304000D03*
X148082000Y-79304000D03*
X147432000Y-79304000D03*
X146782000Y-79304000D03*
X146132000Y-79304000D03*
D16*
X148082000Y-76454000D03*
D15*
X128352000Y-73604000D03*
X129002000Y-73604000D03*
X129652000Y-73604000D03*
X130302000Y-73604000D03*
X130952000Y-73604000D03*
X131602000Y-73604000D03*
X132252000Y-73604000D03*
X132252000Y-79304000D03*
X131602000Y-79304000D03*
X130952000Y-79304000D03*
X130302000Y-79304000D03*
X129652000Y-79304000D03*
X129002000Y-79304000D03*
X128352000Y-79304000D03*
D16*
X130302000Y-76454000D03*
D34*
X139700000Y-112246500D03*
X139700000Y-114321500D03*
D35*
X117938000Y-114472000D03*
X117938000Y-113822000D03*
X117938000Y-113172000D03*
X117938000Y-112522000D03*
X117938000Y-111872000D03*
X117938000Y-111222000D03*
X117938000Y-110572000D03*
X123362000Y-110572000D03*
X123362000Y-111222000D03*
X123362000Y-111872000D03*
X123362000Y-112522000D03*
X123362000Y-113172000D03*
X123362000Y-113822000D03*
X123362000Y-114472000D03*
D36*
X120650000Y-112522000D03*
D32*
X142875000Y-61802000D03*
X142875000Y-63627000D03*
D37*
X143510000Y-70973000D03*
X143510000Y-68473000D03*
D22*
X136294500Y-84836000D03*
X134469500Y-84836000D03*
D28*
X150468500Y-86360000D03*
X148743500Y-86360000D03*
D23*
X130913500Y-83312000D03*
X132738500Y-83312000D03*
D21*
X144526000Y-77597000D03*
X144526000Y-79322000D03*
X135636000Y-77597000D03*
X135636000Y-79322000D03*
D30*
X137414000Y-114284000D03*
X137414000Y-112284000D03*
D33*
X130772000Y-85998000D03*
X130772000Y-85198000D03*
X132372000Y-85198000D03*
X132372000Y-85998000D03*
D21*
X133858000Y-75872000D03*
X133858000Y-77597000D03*
X140208000Y-68860500D03*
X140208000Y-70585500D03*
D28*
X130910500Y-81788000D03*
X129185500Y-81788000D03*
D31*
X122848000Y-104070000D03*
X122848000Y-103270000D03*
X122848000Y-102470000D03*
X122848000Y-101670000D03*
X124548000Y-101670000D03*
X124548000Y-102470000D03*
X124548000Y-103270000D03*
X124548000Y-104070000D03*
D15*
X137242000Y-73604000D03*
X137892000Y-73604000D03*
X138542000Y-73604000D03*
X139192000Y-73604000D03*
X139842000Y-73604000D03*
X140492000Y-73604000D03*
X141142000Y-73604000D03*
X141142000Y-79304000D03*
X140492000Y-79304000D03*
X139842000Y-79304000D03*
X139192000Y-79304000D03*
X138542000Y-79304000D03*
X137892000Y-79304000D03*
X137242000Y-79304000D03*
D16*
X139192000Y-76454000D03*
D38*
X154156500Y-95504000D03*
X156231500Y-95504000D03*
D26*
X150368000Y-82316000D03*
X150368000Y-84816000D03*
D38*
X154135000Y-97790000D03*
X156210000Y-97790000D03*
D32*
X133985000Y-61802000D03*
X133985000Y-63627000D03*
D39*
X124548000Y-106369000D03*
X124548000Y-107169000D03*
X124548000Y-107969000D03*
X124548000Y-108769000D03*
X122848000Y-108769000D03*
X122848000Y-107969000D03*
X122848000Y-107169000D03*
X122848000Y-106369000D03*
D30*
X133350000Y-114284000D03*
X133350000Y-112284000D03*
D40*
X150114000Y-106399500D03*
X150114000Y-104674500D03*
D15*
X146132000Y-60904000D03*
X146782000Y-60904000D03*
X147432000Y-60904000D03*
X148082000Y-60904000D03*
X148732000Y-60904000D03*
X149382000Y-60904000D03*
X150032000Y-60904000D03*
X150032000Y-66604000D03*
X149382000Y-66604000D03*
X148732000Y-66604000D03*
X148082000Y-66604000D03*
X147432000Y-66604000D03*
X146782000Y-66604000D03*
X146132000Y-66604000D03*
D16*
X148082000Y-63754000D03*
D17*
X128524000Y-90320500D03*
X128524000Y-88495500D03*
D33*
X142964000Y-85998000D03*
X142964000Y-85198000D03*
X144564000Y-85198000D03*
X144564000Y-85998000D03*
D31*
X128690000Y-58858000D03*
X128690000Y-58058000D03*
X128690000Y-57258000D03*
X128690000Y-56458000D03*
X130390000Y-56458000D03*
X130390000Y-57258000D03*
X130390000Y-58058000D03*
X130390000Y-58858000D03*
D17*
X145288000Y-70635500D03*
X145288000Y-68810500D03*
D41*
X142072000Y-114513000D03*
X142072000Y-113863000D03*
X142072000Y-113213000D03*
X142072000Y-112563000D03*
X146472000Y-112563000D03*
X146472000Y-113213000D03*
X146472000Y-113863000D03*
X146472000Y-114513000D03*
D23*
X126849500Y-112268000D03*
X128674500Y-112268000D03*
M02*
