M48
; DRILL file {KiCad 9.0.5} date 2025-10-28T00:47:56+0100
; FORMAT={-:-/ absolute / metric / decimal}
; #@! TF.CreationDate,2025-10-28T00:47:56+01:00
; #@! TF.GenerationSoftware,Kicad,Pcbnew,9.0.5
; #@! TF.FileFunction,Plated,1,6,PTH
FMAT,2
METRIC
; #@! TA.AperFunction,Plated,PTH,ViaDrill
T1C0.300
; #@! TA.AperFunction,Plated,PTH,ViaDrill
T2C0.400
; #@! TA.AperFunction,Plated,PTH,ComponentDrill
T3C1.100
%
G90
G05
T1
X109.258Y-78.662
X110.058Y-76.962
X110.283Y-70.151
X110.545Y-65.029
X110.858Y-76.962
X110.858Y-78.662
X111.023Y-70.146
X111.356Y-64.223
X111.366Y-74.86
X111.586Y-68.632
X111.767Y-70.146
X112.022Y-75.577
X112.045Y-68.172
X112.078Y-63.629
X112.172Y-66.517
X112.507Y-67.71
X112.51Y-70.144
X112.781Y-73.515
X113.032Y-67.185
X113.052Y-65.31
X113.236Y-70.125
X113.481Y-62.104
X113.486Y-76.982
X113.5Y-112.376
X113.5Y-113.176
X113.926Y-65.303
X113.98Y-70.87
X114.046Y-69.215
X114.452Y-64.589
X114.47Y-75.292
X114.554Y-80.645
X114.554Y-86.995
X114.808Y-63.497
X114.808Y-68.326
X114.808Y-74.676
X115.316Y-71.882
X115.57Y-64.516
X115.57Y-66.04
X115.57Y-67.564
X115.824Y-68.961
X115.951Y-87.122
X116.115Y-69.559
X116.332Y-65.278
X116.332Y-66.802
X116.332Y-68.326
X116.332Y-100.584
X116.415Y-75.851
X116.459Y-78.867
X116.586Y-71.882
X116.84Y-114.472
X117.602Y-73.641
X117.636Y-77.08
X117.833Y-72.413
X117.837Y-93.535
X117.843Y-65.519
X118.418Y-71.704
X118.637Y-93.535
X118.999Y-66.675
X119.558Y-67.234
X119.744Y-94.062
X119.744Y-97.962
X120.117Y-67.793
X120.675Y-68.351
X120.773Y-98.433
X121.386Y-95.336
X121.423Y-97.312
X122.047Y-109.474
X122.459Y-95.907
X122.848Y-101.67
X122.848Y-104.07
X123.19Y-68.326
X123.368Y-98.501
X123.373Y-97.307
X124.548Y-108.769
X125.28Y-71.704
X126.623Y-96.672
X126.628Y-98.454
X126.736Y-66.685
X126.849Y-112.268
X127.787Y-60.904
X127.787Y-66.604
X127.807Y-73.604
X128.169Y-111.252
X128.352Y-60.401
X128.352Y-61.341
X128.352Y-66.167
X128.352Y-67.125
X128.352Y-78.867
X128.352Y-79.756
X129.002Y-72.622
X129.002Y-78.867
X129.002Y-79.756
X129.652Y-60.401
X129.652Y-61.341
X129.652Y-66.167
X129.652Y-67.107
X129.652Y-78.867
X129.652Y-79.754
X130.302Y-61.341
X130.302Y-66.167
X130.302Y-67.107
X130.772Y-85.198
X130.952Y-60.401
X130.952Y-61.341
X130.952Y-73.604
X130.952Y-78.867
X130.952Y-79.756
X131.077Y-59.663
X131.24Y-58.585
X131.527Y-65.504
X131.602Y-66.182
X131.602Y-78.867
X131.602Y-79.756
X131.793Y-88.309
X131.793Y-88.884
X131.793Y-89.459
X132.252Y-60.401
X132.252Y-61.341
X132.252Y-66.294
X132.252Y-67.107
X132.252Y-78.867
X132.252Y-79.756
X132.693Y-88.309
X132.693Y-88.884
X132.693Y-89.459
X132.817Y-60.904
X132.817Y-66.604
X133.196Y-111.252
X133.986Y-63.627
X136.293Y-88.309
X136.293Y-88.884
X136.293Y-89.459
X136.677Y-60.904
X136.677Y-66.604
X136.697Y-73.604
X137.193Y-88.309
X137.193Y-88.884
X137.193Y-89.459
X137.242Y-60.401
X137.242Y-61.341
X137.242Y-66.167
X137.242Y-67.107
X137.242Y-78.867
X137.242Y-79.756
X137.389Y-81.585
X137.892Y-72.622
X137.892Y-78.867
X137.892Y-79.756
X138.542Y-60.401
X138.542Y-61.341
X138.542Y-66.167
X138.542Y-67.107
X138.542Y-78.867
X138.542Y-79.756
X139.192Y-60.401
X139.192Y-61.341
X139.192Y-66.167
X139.192Y-67.107
X139.842Y-60.401
X139.842Y-61.341
X139.842Y-73.604
X139.842Y-78.868
X139.842Y-79.756
X140.492Y-66.173
X140.492Y-78.867
X140.492Y-79.756
X141.142Y-60.401
X141.142Y-61.341
X141.142Y-66.308
X141.142Y-67.107
X141.142Y-78.867
X141.142Y-79.756
X141.707Y-60.904
X141.707Y-66.604
X142.875Y-63.627
X142.964Y-85.198
X143.985Y-88.309
X143.985Y-88.884
X143.985Y-89.459
X144.885Y-88.309
X144.885Y-88.884
X144.885Y-89.459
X145.567Y-60.904
X145.567Y-66.604
X145.587Y-73.604
X146.132Y-60.401
X146.132Y-61.341
X146.132Y-66.167
X146.132Y-67.107
X146.132Y-78.867
X146.132Y-79.756
X146.472Y-114.513
X146.782Y-66.604
X146.782Y-72.622
X146.782Y-78.867
X146.782Y-79.756
X147.432Y-60.401
X147.432Y-61.341
X147.432Y-66.167
X147.432Y-67.125
X147.432Y-78.867
X147.432Y-79.756
X148.082Y-60.401
X148.082Y-61.341
X148.082Y-66.167
X148.082Y-67.125
X148.485Y-88.309
X148.485Y-88.884
X148.485Y-89.459
X148.732Y-60.401
X148.732Y-61.341
X148.732Y-73.604
X148.732Y-78.867
X148.732Y-79.756
X149.382Y-66.167
X149.382Y-78.867
X149.382Y-79.756
X149.385Y-88.309
X149.385Y-88.884
X149.385Y-89.459
X150.032Y-60.401
X150.032Y-61.341
X150.032Y-66.167
X150.032Y-67.125
X150.032Y-78.867
X150.032Y-79.756
X150.597Y-60.904
X150.597Y-66.604
T2
X103.505Y-74.676
X103.505Y-79.756
X103.505Y-84.836
X103.505Y-89.916
X103.505Y-95.0
X103.505Y-100.076
X104.394Y-59.436
X104.394Y-64.516
X104.394Y-69.596
X104.394Y-105.664
X104.394Y-110.236
X104.394Y-114.808
X104.521Y-53.721
X107.061Y-109.601
X107.95Y-94.996
X108.204Y-114.808
X108.356Y-65.38
X108.358Y-89.662
X108.358Y-99.822
X108.358Y-101.346
X108.458Y-80.874
X108.458Y-82.931
X108.458Y-85.344
X108.458Y-86.868
X109.083Y-61.859
X109.22Y-53.594
X109.22Y-92.03
X109.22Y-97.454
X109.576Y-64.16
X109.576Y-74.524
X109.855Y-112.395
X109.982Y-82.931
X109.982Y-85.344
X110.082Y-89.662
X110.082Y-99.822
X110.199Y-57.441
X110.49Y-92.03
X110.49Y-97.454
X110.896Y-62.84
X110.998Y-87.742
X110.998Y-103.886
X111.328Y-93.46
X112.014Y-94.869
X112.116Y-61.62
X112.194Y-93.46
X112.268Y-111.379
X112.268Y-114.808
X112.929Y-89.662
X113.03Y-92.03
X113.157Y-56.769
X113.309Y-60.427
X114.3Y-53.594
X114.3Y-92.03
X114.427Y-106.553
X114.654Y-89.662
X114.681Y-77.47
X114.861Y-81.82
X114.861Y-82.82
X115.824Y-94.869
X116.332Y-61.214
X116.942Y-56.794
X117.094Y-96.673
X117.094Y-98.398
X117.386Y-80.52
X117.386Y-87.12
X118.459Y-58.096
X118.777Y-61.03
X118.872Y-89.816
X118.872Y-91.54
X119.38Y-53.594
X119.634Y-105.156
X119.634Y-110.871
X119.634Y-111.887
X119.634Y-113.03
X120.015Y-84.328
X120.167Y-57.175
X120.396Y-80.391
X120.396Y-82.55
X120.396Y-85.598
X120.396Y-88.265
X120.498Y-86.868
X120.65Y-110.871
X120.65Y-111.887
X120.65Y-113.03
X121.158Y-61.722
X121.666Y-110.871
X121.666Y-111.887
X121.666Y-113.03
X121.717Y-74.778
X121.92Y-92.964
X122.936Y-73.558
X123.19Y-63.754
X123.571Y-76.708
X124.46Y-53.594
X125.197Y-57.683
X125.476Y-92.964
X126.619Y-63.653
X126.619Y-65.379
X126.898Y-84.328
X126.898Y-86.868
X127.0Y-55.88
X127.102Y-59.61
X128.524Y-96.115
X128.524Y-97.941
X128.651Y-75.438
X128.651Y-76.454
X128.651Y-77.47
X129.075Y-62.738
X129.075Y-64.364
X129.185Y-81.788
X129.54Y-53.594
X129.794Y-75.438
X129.794Y-76.454
X129.794Y-77.47
X129.947Y-95.504
X129.947Y-97.028
X130.048Y-88.519
X130.048Y-89.789
X130.302Y-62.738
X130.302Y-63.954
X130.81Y-75.438
X130.81Y-76.454
X130.81Y-77.47
X131.529Y-62.738
X131.529Y-64.364
X131.672Y-95.504
X131.672Y-97.028
X131.953Y-75.438
X131.953Y-76.454
X131.953Y-77.445
X132.715Y-55.88
X133.986Y-65.438
X134.62Y-53.594
X135.001Y-58.801
X135.382Y-114.284
X135.509Y-62.05
X135.509Y-63.653
X135.509Y-65.379
X135.609Y-66.929
X135.636Y-115.824
X136.144Y-72.136
X136.398Y-84.836
X136.552Y-86.36
X137.414Y-114.284
X137.541Y-75.438
X137.541Y-76.454
X137.541Y-77.47
X137.965Y-62.738
X137.965Y-64.364
X138.176Y-84.816
X138.276Y-86.36
X138.684Y-75.438
X138.684Y-76.454
X138.684Y-77.47
X138.811Y-56.633
X138.946Y-88.519
X138.946Y-89.789
X139.192Y-62.738
X139.192Y-63.954
X139.7Y-53.594
X139.827Y-75.438
X139.827Y-76.454
X139.827Y-77.47
X140.208Y-70.585
X140.208Y-115.824
X140.419Y-62.738
X140.419Y-64.368
X140.843Y-75.438
X140.843Y-76.454
X140.843Y-77.445
X142.367Y-88.519
X142.367Y-89.789
X142.621Y-58.683
X142.875Y-65.438
X143.51Y-68.473
X144.399Y-62.076
X144.399Y-63.653
X144.399Y-65.379
X144.499Y-66.929
X144.78Y-53.594
X144.78Y-115.824
X145.415Y-55.88
X146.431Y-75.438
X146.431Y-76.454
X146.431Y-77.47
X146.431Y-81.788
X146.812Y-70.635
X146.855Y-62.738
X146.856Y-64.37
X147.574Y-75.438
X147.574Y-76.454
X147.574Y-77.47
X148.08Y-62.738
X148.082Y-63.954
X148.312Y-57.277
X148.59Y-84.963
X148.617Y-68.453
X148.717Y-75.438
X148.717Y-76.454
X148.717Y-77.47
X148.743Y-86.36
X149.309Y-62.738
X149.309Y-64.364
X149.632Y-95.504
X149.632Y-97.028
X149.733Y-75.438
X149.733Y-76.454
X149.733Y-77.445
X149.86Y-53.594
X149.86Y-115.824
X150.114Y-55.88
X150.114Y-104.674
X150.137Y-57.277
X150.368Y-84.816
X150.469Y-86.36
X151.13Y-88.519
X151.13Y-89.789
X151.357Y-95.504
X151.357Y-97.028
X151.384Y-58.139
X152.019Y-103.252
X152.4Y-113.792
X152.908Y-58.189
X153.264Y-61.087
X153.264Y-62.357
X153.264Y-92.329
X153.264Y-93.599
X153.797Y-108.966
X153.797Y-110.236
X153.797Y-111.506
X153.797Y-112.776
X153.797Y-114.046
X153.924Y-69.749
X153.924Y-71.474
X154.135Y-97.79
X154.156Y-95.504
X154.432Y-88.646
X154.534Y-61.087
X154.534Y-62.357
X154.534Y-92.329
X154.534Y-93.599
X154.686Y-76.708
X154.686Y-78.74
X154.686Y-80.841
X154.686Y-82.931
X154.686Y-84.963
X154.94Y-53.594
X154.94Y-55.88
X154.94Y-115.824
X155.194Y-108.966
X155.194Y-110.236
X155.194Y-111.506
X155.194Y-112.776
X155.194Y-114.046
X155.321Y-65.913
X155.804Y-61.087
X155.804Y-62.357
X155.804Y-92.329
X155.804Y-93.599
X156.112Y-69.977
X156.112Y-71.691
X156.112Y-73.406
X156.21Y-97.79
X156.21Y-100.584
X156.231Y-95.504
X156.464Y-90.678
X156.566Y-108.966
X156.566Y-110.236
X156.566Y-111.506
X156.566Y-112.776
X156.566Y-114.046
X156.591Y-58.166
X157.048Y-61.087
X157.048Y-62.357
X157.048Y-92.329
X157.048Y-93.599
X157.099Y-76.708
X157.099Y-78.74
X157.099Y-80.841
X157.099Y-82.931
X157.099Y-84.963
X157.988Y-108.966
X157.988Y-110.236
X157.988Y-111.506
X157.988Y-112.776
X157.988Y-114.046
X158.242Y-100.584
X158.75Y-60.325
X158.75Y-63.5
X159.258Y-93.472
X159.385Y-108.966
X159.385Y-110.236
X159.385Y-111.506
X159.385Y-112.776
X159.385Y-114.046
X159.512Y-69.977
X159.512Y-71.691
X159.512Y-73.406
X159.512Y-76.708
X159.512Y-78.74
X159.512Y-80.841
X159.512Y-82.931
X159.512Y-84.963
X160.02Y-53.594
X160.02Y-89.408
X160.02Y-115.824
X160.401Y-55.88
X161.212Y-69.977
X161.212Y-71.691
X161.212Y-73.406
X161.29Y-95.504
X161.544Y-100.711
X161.925Y-76.708
X161.925Y-78.74
X161.925Y-80.841
X161.925Y-82.931
X161.925Y-84.963
X161.976Y-61.087
X161.976Y-62.357
X161.976Y-92.329
X161.976Y-93.599
X162.179Y-97.79
X162.179Y-104.648
X162.179Y-107.061
X162.179Y-109.728
X162.179Y-111.887
X162.179Y-114.046
X162.912Y-69.977
X162.912Y-71.691
X162.912Y-73.406
X163.22Y-61.087
X163.22Y-62.357
X163.22Y-92.329
X163.22Y-93.599
X163.933Y-101.346
X163.983Y-99.822
X164.338Y-76.708
X164.338Y-78.74
X164.338Y-80.841
X164.338Y-82.931
X164.338Y-84.963
X164.49Y-61.087
X164.49Y-62.357
X164.49Y-92.329
X164.49Y-93.599
X165.1Y-53.594
X165.1Y-69.749
X165.1Y-71.474
X165.354Y-104.648
X165.354Y-109.728
X165.354Y-114.808
X165.76Y-61.087
X165.76Y-62.357
X165.76Y-92.329
X165.76Y-93.599
X166.497Y-55.753
X166.497Y-64.008
X166.497Y-69.088
X166.497Y-74.168
X166.497Y-79.248
X166.497Y-84.328
X166.497Y-89.408
X166.497Y-94.488
X169.164Y-53.721
X169.291Y-58.928
X169.291Y-64.008
X169.291Y-69.088
X169.291Y-74.168
X169.291Y-79.248
X169.291Y-84.328
X169.291Y-89.408
X169.291Y-94.488
X169.291Y-99.568
X169.291Y-104.648
X169.291Y-109.728
X169.291Y-114.808
T3
X127.0Y-101.6
X127.0Y-104.1
X127.0Y-106.6
X127.0Y-109.1
X129.5Y-101.6
X129.5Y-104.1
X129.5Y-106.6
X129.5Y-109.1
X132.0Y-101.6
X132.0Y-104.1
X132.0Y-106.6
X132.0Y-109.1
X134.5Y-101.6
X134.5Y-104.1
X134.5Y-106.6
X134.5Y-109.1
X137.0Y-101.6
X137.0Y-104.1
X137.0Y-106.6
X137.0Y-109.1
X139.5Y-101.6
X139.5Y-104.1
X139.5Y-106.6
X139.5Y-109.1
X143.0Y-101.6
X143.0Y-104.1
X143.0Y-106.6
X143.0Y-109.1
X146.7Y-101.6
X146.7Y-104.1
X146.7Y-106.6
X146.7Y-109.1
M30
