%TF.GenerationSoftware,KiCad,Pcbnew,9.0.5*%
%TF.CreationDate,2025-10-28T00:47:56+01:00*%
%TF.ProjectId,DoorControlModule,446f6f72-436f-46e7-9472-6f6c4d6f6475,rev?*%
%TF.SameCoordinates,Original*%
%TF.FileFunction,Drillmap*%
%TF.FilePolarity,Positive*%
%FSLAX45Y45*%
G04 Gerber Fmt 4.5, Leading zero omitted, Abs format (unit mm)*
G04 Created by KiCad (PCBNEW 9.0.5) date 2025-10-28 00:47:56*
%MOMM*%
%LPD*%
G01*
G04 APERTURE LIST*
%ADD10C,0.120000*%
%ADD11C,0.200000*%
%ADD12C,0.230000*%
%ADD13C,0.410000*%
G04 APERTURE END LIST*
D10*
X16725000Y-5170000D02*
G75*
G02*
X17125000Y-5570000I0J-400000D01*
G01*
X10245000Y-5570000D02*
G75*
G02*
X10645000Y-5170000I400000J0D01*
G01*
X17125000Y-11670000D02*
X10245000Y-11670000D01*
X17125000Y-5570000D02*
X17125000Y-11670000D01*
X10645000Y-5170000D02*
X16725000Y-5170000D01*
X10245000Y-11670000D02*
X10245000Y-5570000D01*
D11*
X10495000Y-5420000D02*
X10695000Y-5620000D01*
X10695000Y-5420000D02*
X10495000Y-5620000D01*
X16675000Y-8520000D02*
X16875000Y-8720000D01*
X16875000Y-8520000D02*
X16675000Y-8720000D01*
D12*
X12170000Y-10060000D02*
G75*
G02*
X11940000Y-10060000I-115000J0D01*
G01*
X11940000Y-10060000D02*
G75*
G02*
X12170000Y-10060000I115000J0D01*
G01*
X15430000Y-10060000D02*
G75*
G02*
X15200000Y-10060000I-115000J0D01*
G01*
X15200000Y-10060000D02*
G75*
G02*
X15430000Y-10060000I115000J0D01*
G01*
D13*
X11645000Y-10240000D02*
X11645000Y-10650000D01*
X11440000Y-10445000D02*
X11850000Y-10445000D01*
X15725000Y-10240000D02*
X15725000Y-10650000D01*
X15520000Y-10445000D02*
X15930000Y-10445000D01*
D11*
X10499777Y-11987484D02*
X10499777Y-11787484D01*
X10499777Y-11787484D02*
X10547396Y-11787484D01*
X10547396Y-11787484D02*
X10575967Y-11797008D01*
X10575967Y-11797008D02*
X10595015Y-11816055D01*
X10595015Y-11816055D02*
X10604539Y-11835103D01*
X10604539Y-11835103D02*
X10614063Y-11873198D01*
X10614063Y-11873198D02*
X10614063Y-11901769D01*
X10614063Y-11901769D02*
X10604539Y-11939865D01*
X10604539Y-11939865D02*
X10595015Y-11958912D01*
X10595015Y-11958912D02*
X10575967Y-11977960D01*
X10575967Y-11977960D02*
X10547396Y-11987484D01*
X10547396Y-11987484D02*
X10499777Y-11987484D01*
X10699777Y-11987484D02*
X10699777Y-11854150D01*
X10699777Y-11892246D02*
X10709301Y-11873198D01*
X10709301Y-11873198D02*
X10718824Y-11863674D01*
X10718824Y-11863674D02*
X10737872Y-11854150D01*
X10737872Y-11854150D02*
X10756920Y-11854150D01*
X10823586Y-11987484D02*
X10823586Y-11854150D01*
X10823586Y-11787484D02*
X10814063Y-11797008D01*
X10814063Y-11797008D02*
X10823586Y-11806531D01*
X10823586Y-11806531D02*
X10833110Y-11797008D01*
X10833110Y-11797008D02*
X10823586Y-11787484D01*
X10823586Y-11787484D02*
X10823586Y-11806531D01*
X10947396Y-11987484D02*
X10928348Y-11977960D01*
X10928348Y-11977960D02*
X10918824Y-11958912D01*
X10918824Y-11958912D02*
X10918824Y-11787484D01*
X11052158Y-11987484D02*
X11033110Y-11977960D01*
X11033110Y-11977960D02*
X11023586Y-11958912D01*
X11023586Y-11958912D02*
X11023586Y-11787484D01*
X11280729Y-11987484D02*
X11280729Y-11787484D01*
X11280729Y-11787484D02*
X11347396Y-11930341D01*
X11347396Y-11930341D02*
X11414062Y-11787484D01*
X11414062Y-11787484D02*
X11414062Y-11987484D01*
X11595015Y-11987484D02*
X11595015Y-11882722D01*
X11595015Y-11882722D02*
X11585491Y-11863674D01*
X11585491Y-11863674D02*
X11566443Y-11854150D01*
X11566443Y-11854150D02*
X11528348Y-11854150D01*
X11528348Y-11854150D02*
X11509301Y-11863674D01*
X11595015Y-11977960D02*
X11575967Y-11987484D01*
X11575967Y-11987484D02*
X11528348Y-11987484D01*
X11528348Y-11987484D02*
X11509301Y-11977960D01*
X11509301Y-11977960D02*
X11499777Y-11958912D01*
X11499777Y-11958912D02*
X11499777Y-11939865D01*
X11499777Y-11939865D02*
X11509301Y-11920817D01*
X11509301Y-11920817D02*
X11528348Y-11911293D01*
X11528348Y-11911293D02*
X11575967Y-11911293D01*
X11575967Y-11911293D02*
X11595015Y-11901769D01*
X11690253Y-11854150D02*
X11690253Y-12054150D01*
X11690253Y-11863674D02*
X11709301Y-11854150D01*
X11709301Y-11854150D02*
X11747396Y-11854150D01*
X11747396Y-11854150D02*
X11766443Y-11863674D01*
X11766443Y-11863674D02*
X11775967Y-11873198D01*
X11775967Y-11873198D02*
X11785491Y-11892246D01*
X11785491Y-11892246D02*
X11785491Y-11949388D01*
X11785491Y-11949388D02*
X11775967Y-11968436D01*
X11775967Y-11968436D02*
X11766443Y-11977960D01*
X11766443Y-11977960D02*
X11747396Y-11987484D01*
X11747396Y-11987484D02*
X11709301Y-11987484D01*
X11709301Y-11987484D02*
X11690253Y-11977960D01*
X11871205Y-11968436D02*
X11880729Y-11977960D01*
X11880729Y-11977960D02*
X11871205Y-11987484D01*
X11871205Y-11987484D02*
X11861682Y-11977960D01*
X11861682Y-11977960D02*
X11871205Y-11968436D01*
X11871205Y-11968436D02*
X11871205Y-11987484D01*
X11871205Y-11863674D02*
X11880729Y-11873198D01*
X11880729Y-11873198D02*
X11871205Y-11882722D01*
X11871205Y-11882722D02*
X11861682Y-11873198D01*
X11861682Y-11873198D02*
X11871205Y-11863674D01*
X11871205Y-11863674D02*
X11871205Y-11882722D01*
X10039000Y-12216000D02*
X10239000Y-12416000D01*
X10239000Y-12216000D02*
X10039000Y-12416000D01*
X10490253Y-12226531D02*
X10499777Y-12217008D01*
X10499777Y-12217008D02*
X10518824Y-12207484D01*
X10518824Y-12207484D02*
X10566444Y-12207484D01*
X10566444Y-12207484D02*
X10585491Y-12217008D01*
X10585491Y-12217008D02*
X10595015Y-12226531D01*
X10595015Y-12226531D02*
X10604539Y-12245579D01*
X10604539Y-12245579D02*
X10604539Y-12264627D01*
X10604539Y-12264627D02*
X10595015Y-12293198D01*
X10595015Y-12293198D02*
X10480729Y-12407484D01*
X10480729Y-12407484D02*
X10604539Y-12407484D01*
X10690253Y-12388436D02*
X10699777Y-12397960D01*
X10699777Y-12397960D02*
X10690253Y-12407484D01*
X10690253Y-12407484D02*
X10680729Y-12397960D01*
X10680729Y-12397960D02*
X10690253Y-12388436D01*
X10690253Y-12388436D02*
X10690253Y-12407484D01*
X10823586Y-12207484D02*
X10842634Y-12207484D01*
X10842634Y-12207484D02*
X10861682Y-12217008D01*
X10861682Y-12217008D02*
X10871205Y-12226531D01*
X10871205Y-12226531D02*
X10880729Y-12245579D01*
X10880729Y-12245579D02*
X10890253Y-12283674D01*
X10890253Y-12283674D02*
X10890253Y-12331293D01*
X10890253Y-12331293D02*
X10880729Y-12369388D01*
X10880729Y-12369388D02*
X10871205Y-12388436D01*
X10871205Y-12388436D02*
X10861682Y-12397960D01*
X10861682Y-12397960D02*
X10842634Y-12407484D01*
X10842634Y-12407484D02*
X10823586Y-12407484D01*
X10823586Y-12407484D02*
X10804539Y-12397960D01*
X10804539Y-12397960D02*
X10795015Y-12388436D01*
X10795015Y-12388436D02*
X10785491Y-12369388D01*
X10785491Y-12369388D02*
X10775967Y-12331293D01*
X10775967Y-12331293D02*
X10775967Y-12283674D01*
X10775967Y-12283674D02*
X10785491Y-12245579D01*
X10785491Y-12245579D02*
X10795015Y-12226531D01*
X10795015Y-12226531D02*
X10804539Y-12217008D01*
X10804539Y-12217008D02*
X10823586Y-12207484D01*
X11014063Y-12207484D02*
X11033110Y-12207484D01*
X11033110Y-12207484D02*
X11052158Y-12217008D01*
X11052158Y-12217008D02*
X11061682Y-12226531D01*
X11061682Y-12226531D02*
X11071205Y-12245579D01*
X11071205Y-12245579D02*
X11080729Y-12283674D01*
X11080729Y-12283674D02*
X11080729Y-12331293D01*
X11080729Y-12331293D02*
X11071205Y-12369388D01*
X11071205Y-12369388D02*
X11061682Y-12388436D01*
X11061682Y-12388436D02*
X11052158Y-12397960D01*
X11052158Y-12397960D02*
X11033110Y-12407484D01*
X11033110Y-12407484D02*
X11014063Y-12407484D01*
X11014063Y-12407484D02*
X10995015Y-12397960D01*
X10995015Y-12397960D02*
X10985491Y-12388436D01*
X10985491Y-12388436D02*
X10975967Y-12369388D01*
X10975967Y-12369388D02*
X10966444Y-12331293D01*
X10966444Y-12331293D02*
X10966444Y-12283674D01*
X10966444Y-12283674D02*
X10975967Y-12245579D01*
X10975967Y-12245579D02*
X10985491Y-12226531D01*
X10985491Y-12226531D02*
X10995015Y-12217008D01*
X10995015Y-12217008D02*
X11014063Y-12207484D01*
X11204539Y-12207484D02*
X11223586Y-12207484D01*
X11223586Y-12207484D02*
X11242634Y-12217008D01*
X11242634Y-12217008D02*
X11252158Y-12226531D01*
X11252158Y-12226531D02*
X11261682Y-12245579D01*
X11261682Y-12245579D02*
X11271205Y-12283674D01*
X11271205Y-12283674D02*
X11271205Y-12331293D01*
X11271205Y-12331293D02*
X11261682Y-12369388D01*
X11261682Y-12369388D02*
X11252158Y-12388436D01*
X11252158Y-12388436D02*
X11242634Y-12397960D01*
X11242634Y-12397960D02*
X11223586Y-12407484D01*
X11223586Y-12407484D02*
X11204539Y-12407484D01*
X11204539Y-12407484D02*
X11185491Y-12397960D01*
X11185491Y-12397960D02*
X11175967Y-12388436D01*
X11175967Y-12388436D02*
X11166444Y-12369388D01*
X11166444Y-12369388D02*
X11156920Y-12331293D01*
X11156920Y-12331293D02*
X11156920Y-12283674D01*
X11156920Y-12283674D02*
X11166444Y-12245579D01*
X11166444Y-12245579D02*
X11175967Y-12226531D01*
X11175967Y-12226531D02*
X11185491Y-12217008D01*
X11185491Y-12217008D02*
X11204539Y-12207484D01*
X11356920Y-12407484D02*
X11356920Y-12274150D01*
X11356920Y-12293198D02*
X11366443Y-12283674D01*
X11366443Y-12283674D02*
X11385491Y-12274150D01*
X11385491Y-12274150D02*
X11414063Y-12274150D01*
X11414063Y-12274150D02*
X11433110Y-12283674D01*
X11433110Y-12283674D02*
X11442634Y-12302722D01*
X11442634Y-12302722D02*
X11442634Y-12407484D01*
X11442634Y-12302722D02*
X11452158Y-12283674D01*
X11452158Y-12283674D02*
X11471205Y-12274150D01*
X11471205Y-12274150D02*
X11499777Y-12274150D01*
X11499777Y-12274150D02*
X11518824Y-12283674D01*
X11518824Y-12283674D02*
X11528348Y-12302722D01*
X11528348Y-12302722D02*
X11528348Y-12407484D01*
X11623586Y-12407484D02*
X11623586Y-12274150D01*
X11623586Y-12293198D02*
X11633110Y-12283674D01*
X11633110Y-12283674D02*
X11652158Y-12274150D01*
X11652158Y-12274150D02*
X11680729Y-12274150D01*
X11680729Y-12274150D02*
X11699777Y-12283674D01*
X11699777Y-12283674D02*
X11709301Y-12302722D01*
X11709301Y-12302722D02*
X11709301Y-12407484D01*
X11709301Y-12302722D02*
X11718824Y-12283674D01*
X11718824Y-12283674D02*
X11737872Y-12274150D01*
X11737872Y-12274150D02*
X11766443Y-12274150D01*
X11766443Y-12274150D02*
X11785491Y-12283674D01*
X11785491Y-12283674D02*
X11795015Y-12302722D01*
X11795015Y-12302722D02*
X11795015Y-12407484D01*
X12185491Y-12197960D02*
X12014063Y-12455103D01*
X12442634Y-12207484D02*
X12461682Y-12207484D01*
X12461682Y-12207484D02*
X12480729Y-12217008D01*
X12480729Y-12217008D02*
X12490253Y-12226531D01*
X12490253Y-12226531D02*
X12499777Y-12245579D01*
X12499777Y-12245579D02*
X12509301Y-12283674D01*
X12509301Y-12283674D02*
X12509301Y-12331293D01*
X12509301Y-12331293D02*
X12499777Y-12369388D01*
X12499777Y-12369388D02*
X12490253Y-12388436D01*
X12490253Y-12388436D02*
X12480729Y-12397960D01*
X12480729Y-12397960D02*
X12461682Y-12407484D01*
X12461682Y-12407484D02*
X12442634Y-12407484D01*
X12442634Y-12407484D02*
X12423586Y-12397960D01*
X12423586Y-12397960D02*
X12414063Y-12388436D01*
X12414063Y-12388436D02*
X12404539Y-12369388D01*
X12404539Y-12369388D02*
X12395015Y-12331293D01*
X12395015Y-12331293D02*
X12395015Y-12283674D01*
X12395015Y-12283674D02*
X12404539Y-12245579D01*
X12404539Y-12245579D02*
X12414063Y-12226531D01*
X12414063Y-12226531D02*
X12423586Y-12217008D01*
X12423586Y-12217008D02*
X12442634Y-12207484D01*
X12595015Y-12388436D02*
X12604539Y-12397960D01*
X12604539Y-12397960D02*
X12595015Y-12407484D01*
X12595015Y-12407484D02*
X12585491Y-12397960D01*
X12585491Y-12397960D02*
X12595015Y-12388436D01*
X12595015Y-12388436D02*
X12595015Y-12407484D01*
X12728348Y-12207484D02*
X12747396Y-12207484D01*
X12747396Y-12207484D02*
X12766444Y-12217008D01*
X12766444Y-12217008D02*
X12775967Y-12226531D01*
X12775967Y-12226531D02*
X12785491Y-12245579D01*
X12785491Y-12245579D02*
X12795015Y-12283674D01*
X12795015Y-12283674D02*
X12795015Y-12331293D01*
X12795015Y-12331293D02*
X12785491Y-12369388D01*
X12785491Y-12369388D02*
X12775967Y-12388436D01*
X12775967Y-12388436D02*
X12766444Y-12397960D01*
X12766444Y-12397960D02*
X12747396Y-12407484D01*
X12747396Y-12407484D02*
X12728348Y-12407484D01*
X12728348Y-12407484D02*
X12709301Y-12397960D01*
X12709301Y-12397960D02*
X12699777Y-12388436D01*
X12699777Y-12388436D02*
X12690253Y-12369388D01*
X12690253Y-12369388D02*
X12680729Y-12331293D01*
X12680729Y-12331293D02*
X12680729Y-12283674D01*
X12680729Y-12283674D02*
X12690253Y-12245579D01*
X12690253Y-12245579D02*
X12699777Y-12226531D01*
X12699777Y-12226531D02*
X12709301Y-12217008D01*
X12709301Y-12217008D02*
X12728348Y-12207484D01*
X12861682Y-12207484D02*
X12995015Y-12207484D01*
X12995015Y-12207484D02*
X12909301Y-12407484D01*
X13099777Y-12293198D02*
X13080729Y-12283674D01*
X13080729Y-12283674D02*
X13071206Y-12274150D01*
X13071206Y-12274150D02*
X13061682Y-12255103D01*
X13061682Y-12255103D02*
X13061682Y-12245579D01*
X13061682Y-12245579D02*
X13071206Y-12226531D01*
X13071206Y-12226531D02*
X13080729Y-12217008D01*
X13080729Y-12217008D02*
X13099777Y-12207484D01*
X13099777Y-12207484D02*
X13137872Y-12207484D01*
X13137872Y-12207484D02*
X13156920Y-12217008D01*
X13156920Y-12217008D02*
X13166444Y-12226531D01*
X13166444Y-12226531D02*
X13175967Y-12245579D01*
X13175967Y-12245579D02*
X13175967Y-12255103D01*
X13175967Y-12255103D02*
X13166444Y-12274150D01*
X13166444Y-12274150D02*
X13156920Y-12283674D01*
X13156920Y-12283674D02*
X13137872Y-12293198D01*
X13137872Y-12293198D02*
X13099777Y-12293198D01*
X13099777Y-12293198D02*
X13080729Y-12302722D01*
X13080729Y-12302722D02*
X13071206Y-12312246D01*
X13071206Y-12312246D02*
X13061682Y-12331293D01*
X13061682Y-12331293D02*
X13061682Y-12369388D01*
X13061682Y-12369388D02*
X13071206Y-12388436D01*
X13071206Y-12388436D02*
X13080729Y-12397960D01*
X13080729Y-12397960D02*
X13099777Y-12407484D01*
X13099777Y-12407484D02*
X13137872Y-12407484D01*
X13137872Y-12407484D02*
X13156920Y-12397960D01*
X13156920Y-12397960D02*
X13166444Y-12388436D01*
X13166444Y-12388436D02*
X13175967Y-12369388D01*
X13175967Y-12369388D02*
X13175967Y-12331293D01*
X13175967Y-12331293D02*
X13166444Y-12312246D01*
X13166444Y-12312246D02*
X13156920Y-12302722D01*
X13156920Y-12302722D02*
X13137872Y-12293198D01*
X13242634Y-12207484D02*
X13375967Y-12207484D01*
X13375967Y-12207484D02*
X13290253Y-12407484D01*
X13442634Y-12207484D02*
X13442634Y-12245579D01*
X13518825Y-12207484D02*
X13518825Y-12245579D01*
X13814063Y-12483674D02*
X13804539Y-12474150D01*
X13804539Y-12474150D02*
X13785491Y-12445579D01*
X13785491Y-12445579D02*
X13775968Y-12426531D01*
X13775968Y-12426531D02*
X13766444Y-12397960D01*
X13766444Y-12397960D02*
X13756920Y-12350341D01*
X13756920Y-12350341D02*
X13756920Y-12312246D01*
X13756920Y-12312246D02*
X13766444Y-12264627D01*
X13766444Y-12264627D02*
X13775968Y-12236055D01*
X13775968Y-12236055D02*
X13785491Y-12217008D01*
X13785491Y-12217008D02*
X13804539Y-12188436D01*
X13804539Y-12188436D02*
X13814063Y-12178912D01*
X13880729Y-12226531D02*
X13890253Y-12217008D01*
X13890253Y-12217008D02*
X13909301Y-12207484D01*
X13909301Y-12207484D02*
X13956920Y-12207484D01*
X13956920Y-12207484D02*
X13975968Y-12217008D01*
X13975968Y-12217008D02*
X13985491Y-12226531D01*
X13985491Y-12226531D02*
X13995015Y-12245579D01*
X13995015Y-12245579D02*
X13995015Y-12264627D01*
X13995015Y-12264627D02*
X13985491Y-12293198D01*
X13985491Y-12293198D02*
X13871206Y-12407484D01*
X13871206Y-12407484D02*
X13995015Y-12407484D01*
X14233110Y-12407484D02*
X14233110Y-12207484D01*
X14318825Y-12407484D02*
X14318825Y-12302722D01*
X14318825Y-12302722D02*
X14309301Y-12283674D01*
X14309301Y-12283674D02*
X14290253Y-12274150D01*
X14290253Y-12274150D02*
X14261682Y-12274150D01*
X14261682Y-12274150D02*
X14242634Y-12283674D01*
X14242634Y-12283674D02*
X14233110Y-12293198D01*
X14442634Y-12407484D02*
X14423587Y-12397960D01*
X14423587Y-12397960D02*
X14414063Y-12388436D01*
X14414063Y-12388436D02*
X14404539Y-12369388D01*
X14404539Y-12369388D02*
X14404539Y-12312246D01*
X14404539Y-12312246D02*
X14414063Y-12293198D01*
X14414063Y-12293198D02*
X14423587Y-12283674D01*
X14423587Y-12283674D02*
X14442634Y-12274150D01*
X14442634Y-12274150D02*
X14471206Y-12274150D01*
X14471206Y-12274150D02*
X14490253Y-12283674D01*
X14490253Y-12283674D02*
X14499777Y-12293198D01*
X14499777Y-12293198D02*
X14509301Y-12312246D01*
X14509301Y-12312246D02*
X14509301Y-12369388D01*
X14509301Y-12369388D02*
X14499777Y-12388436D01*
X14499777Y-12388436D02*
X14490253Y-12397960D01*
X14490253Y-12397960D02*
X14471206Y-12407484D01*
X14471206Y-12407484D02*
X14442634Y-12407484D01*
X14623587Y-12407484D02*
X14604539Y-12397960D01*
X14604539Y-12397960D02*
X14595015Y-12378912D01*
X14595015Y-12378912D02*
X14595015Y-12207484D01*
X14775968Y-12397960D02*
X14756920Y-12407484D01*
X14756920Y-12407484D02*
X14718825Y-12407484D01*
X14718825Y-12407484D02*
X14699777Y-12397960D01*
X14699777Y-12397960D02*
X14690253Y-12378912D01*
X14690253Y-12378912D02*
X14690253Y-12302722D01*
X14690253Y-12302722D02*
X14699777Y-12283674D01*
X14699777Y-12283674D02*
X14718825Y-12274150D01*
X14718825Y-12274150D02*
X14756920Y-12274150D01*
X14756920Y-12274150D02*
X14775968Y-12283674D01*
X14775968Y-12283674D02*
X14785491Y-12302722D01*
X14785491Y-12302722D02*
X14785491Y-12321769D01*
X14785491Y-12321769D02*
X14690253Y-12340817D01*
X14861682Y-12397960D02*
X14880730Y-12407484D01*
X14880730Y-12407484D02*
X14918825Y-12407484D01*
X14918825Y-12407484D02*
X14937872Y-12397960D01*
X14937872Y-12397960D02*
X14947396Y-12378912D01*
X14947396Y-12378912D02*
X14947396Y-12369388D01*
X14947396Y-12369388D02*
X14937872Y-12350341D01*
X14937872Y-12350341D02*
X14918825Y-12340817D01*
X14918825Y-12340817D02*
X14890253Y-12340817D01*
X14890253Y-12340817D02*
X14871206Y-12331293D01*
X14871206Y-12331293D02*
X14861682Y-12312246D01*
X14861682Y-12312246D02*
X14861682Y-12302722D01*
X14861682Y-12302722D02*
X14871206Y-12283674D01*
X14871206Y-12283674D02*
X14890253Y-12274150D01*
X14890253Y-12274150D02*
X14918825Y-12274150D01*
X14918825Y-12274150D02*
X14937872Y-12283674D01*
X15014063Y-12483674D02*
X15023587Y-12474150D01*
X15023587Y-12474150D02*
X15042634Y-12445579D01*
X15042634Y-12445579D02*
X15052158Y-12426531D01*
X15052158Y-12426531D02*
X15061682Y-12397960D01*
X15061682Y-12397960D02*
X15071206Y-12350341D01*
X15071206Y-12350341D02*
X15071206Y-12312246D01*
X15071206Y-12312246D02*
X15061682Y-12264627D01*
X15061682Y-12264627D02*
X15052158Y-12236055D01*
X15052158Y-12236055D02*
X15042634Y-12217008D01*
X15042634Y-12217008D02*
X15023587Y-12188436D01*
X15023587Y-12188436D02*
X15014063Y-12178912D01*
X15375968Y-12483674D02*
X15366444Y-12474150D01*
X15366444Y-12474150D02*
X15347396Y-12445579D01*
X15347396Y-12445579D02*
X15337872Y-12426531D01*
X15337872Y-12426531D02*
X15328349Y-12397960D01*
X15328349Y-12397960D02*
X15318825Y-12350341D01*
X15318825Y-12350341D02*
X15318825Y-12312246D01*
X15318825Y-12312246D02*
X15328349Y-12264627D01*
X15328349Y-12264627D02*
X15337872Y-12236055D01*
X15337872Y-12236055D02*
X15347396Y-12217008D01*
X15347396Y-12217008D02*
X15366444Y-12188436D01*
X15366444Y-12188436D02*
X15375968Y-12178912D01*
X15452158Y-12274150D02*
X15452158Y-12407484D01*
X15452158Y-12293198D02*
X15461682Y-12283674D01*
X15461682Y-12283674D02*
X15480730Y-12274150D01*
X15480730Y-12274150D02*
X15509301Y-12274150D01*
X15509301Y-12274150D02*
X15528349Y-12283674D01*
X15528349Y-12283674D02*
X15537872Y-12302722D01*
X15537872Y-12302722D02*
X15537872Y-12407484D01*
X15661682Y-12407484D02*
X15642634Y-12397960D01*
X15642634Y-12397960D02*
X15633111Y-12388436D01*
X15633111Y-12388436D02*
X15623587Y-12369388D01*
X15623587Y-12369388D02*
X15623587Y-12312246D01*
X15623587Y-12312246D02*
X15633111Y-12293198D01*
X15633111Y-12293198D02*
X15642634Y-12283674D01*
X15642634Y-12283674D02*
X15661682Y-12274150D01*
X15661682Y-12274150D02*
X15690253Y-12274150D01*
X15690253Y-12274150D02*
X15709301Y-12283674D01*
X15709301Y-12283674D02*
X15718825Y-12293198D01*
X15718825Y-12293198D02*
X15728349Y-12312246D01*
X15728349Y-12312246D02*
X15728349Y-12369388D01*
X15728349Y-12369388D02*
X15718825Y-12388436D01*
X15718825Y-12388436D02*
X15709301Y-12397960D01*
X15709301Y-12397960D02*
X15690253Y-12407484D01*
X15690253Y-12407484D02*
X15661682Y-12407484D01*
X15785492Y-12274150D02*
X15861682Y-12274150D01*
X15814063Y-12207484D02*
X15814063Y-12378912D01*
X15814063Y-12378912D02*
X15823587Y-12397960D01*
X15823587Y-12397960D02*
X15842634Y-12407484D01*
X15842634Y-12407484D02*
X15861682Y-12407484D01*
X16080730Y-12274150D02*
X16080730Y-12474150D01*
X16080730Y-12283674D02*
X16099777Y-12274150D01*
X16099777Y-12274150D02*
X16137873Y-12274150D01*
X16137873Y-12274150D02*
X16156920Y-12283674D01*
X16156920Y-12283674D02*
X16166444Y-12293198D01*
X16166444Y-12293198D02*
X16175968Y-12312246D01*
X16175968Y-12312246D02*
X16175968Y-12369388D01*
X16175968Y-12369388D02*
X16166444Y-12388436D01*
X16166444Y-12388436D02*
X16156920Y-12397960D01*
X16156920Y-12397960D02*
X16137873Y-12407484D01*
X16137873Y-12407484D02*
X16099777Y-12407484D01*
X16099777Y-12407484D02*
X16080730Y-12397960D01*
X16290253Y-12407484D02*
X16271206Y-12397960D01*
X16271206Y-12397960D02*
X16261682Y-12378912D01*
X16261682Y-12378912D02*
X16261682Y-12207484D01*
X16452158Y-12407484D02*
X16452158Y-12302722D01*
X16452158Y-12302722D02*
X16442634Y-12283674D01*
X16442634Y-12283674D02*
X16423587Y-12274150D01*
X16423587Y-12274150D02*
X16385492Y-12274150D01*
X16385492Y-12274150D02*
X16366444Y-12283674D01*
X16452158Y-12397960D02*
X16433111Y-12407484D01*
X16433111Y-12407484D02*
X16385492Y-12407484D01*
X16385492Y-12407484D02*
X16366444Y-12397960D01*
X16366444Y-12397960D02*
X16356920Y-12378912D01*
X16356920Y-12378912D02*
X16356920Y-12359865D01*
X16356920Y-12359865D02*
X16366444Y-12340817D01*
X16366444Y-12340817D02*
X16385492Y-12331293D01*
X16385492Y-12331293D02*
X16433111Y-12331293D01*
X16433111Y-12331293D02*
X16452158Y-12321769D01*
X16518825Y-12274150D02*
X16595015Y-12274150D01*
X16547396Y-12207484D02*
X16547396Y-12378912D01*
X16547396Y-12378912D02*
X16556920Y-12397960D01*
X16556920Y-12397960D02*
X16575968Y-12407484D01*
X16575968Y-12407484D02*
X16595015Y-12407484D01*
X16737873Y-12397960D02*
X16718825Y-12407484D01*
X16718825Y-12407484D02*
X16680730Y-12407484D01*
X16680730Y-12407484D02*
X16661682Y-12397960D01*
X16661682Y-12397960D02*
X16652158Y-12378912D01*
X16652158Y-12378912D02*
X16652158Y-12302722D01*
X16652158Y-12302722D02*
X16661682Y-12283674D01*
X16661682Y-12283674D02*
X16680730Y-12274150D01*
X16680730Y-12274150D02*
X16718825Y-12274150D01*
X16718825Y-12274150D02*
X16737873Y-12283674D01*
X16737873Y-12283674D02*
X16747396Y-12302722D01*
X16747396Y-12302722D02*
X16747396Y-12321769D01*
X16747396Y-12321769D02*
X16652158Y-12340817D01*
X16918825Y-12407484D02*
X16918825Y-12207484D01*
X16918825Y-12397960D02*
X16899777Y-12407484D01*
X16899777Y-12407484D02*
X16861682Y-12407484D01*
X16861682Y-12407484D02*
X16842635Y-12397960D01*
X16842635Y-12397960D02*
X16833111Y-12388436D01*
X16833111Y-12388436D02*
X16823587Y-12369388D01*
X16823587Y-12369388D02*
X16823587Y-12312246D01*
X16823587Y-12312246D02*
X16833111Y-12293198D01*
X16833111Y-12293198D02*
X16842635Y-12283674D01*
X16842635Y-12283674D02*
X16861682Y-12274150D01*
X16861682Y-12274150D02*
X16899777Y-12274150D01*
X16899777Y-12274150D02*
X16918825Y-12283674D01*
X16995016Y-12483674D02*
X17004539Y-12474150D01*
X17004539Y-12474150D02*
X17023587Y-12445579D01*
X17023587Y-12445579D02*
X17033111Y-12426531D01*
X17033111Y-12426531D02*
X17042635Y-12397960D01*
X17042635Y-12397960D02*
X17052158Y-12350341D01*
X17052158Y-12350341D02*
X17052158Y-12312246D01*
X17052158Y-12312246D02*
X17042635Y-12264627D01*
X17042635Y-12264627D02*
X17033111Y-12236055D01*
X17033111Y-12236055D02*
X17023587Y-12217008D01*
X17023587Y-12217008D02*
X17004539Y-12188436D01*
X17004539Y-12188436D02*
X16995016Y-12178912D01*
X10239000Y-12636000D02*
G75*
G02*
X10039000Y-12636000I-100000J0D01*
G01*
X10039000Y-12636000D02*
G75*
G02*
X10239000Y-12636000I100000J0D01*
G01*
X10490253Y-12546531D02*
X10499777Y-12537008D01*
X10499777Y-12537008D02*
X10518824Y-12527484D01*
X10518824Y-12527484D02*
X10566444Y-12527484D01*
X10566444Y-12527484D02*
X10585491Y-12537008D01*
X10585491Y-12537008D02*
X10595015Y-12546531D01*
X10595015Y-12546531D02*
X10604539Y-12565579D01*
X10604539Y-12565579D02*
X10604539Y-12584627D01*
X10604539Y-12584627D02*
X10595015Y-12613198D01*
X10595015Y-12613198D02*
X10480729Y-12727484D01*
X10480729Y-12727484D02*
X10604539Y-12727484D01*
X10690253Y-12708436D02*
X10699777Y-12717960D01*
X10699777Y-12717960D02*
X10690253Y-12727484D01*
X10690253Y-12727484D02*
X10680729Y-12717960D01*
X10680729Y-12717960D02*
X10690253Y-12708436D01*
X10690253Y-12708436D02*
X10690253Y-12727484D01*
X10766444Y-12527484D02*
X10890253Y-12527484D01*
X10890253Y-12527484D02*
X10823586Y-12603674D01*
X10823586Y-12603674D02*
X10852158Y-12603674D01*
X10852158Y-12603674D02*
X10871205Y-12613198D01*
X10871205Y-12613198D02*
X10880729Y-12622722D01*
X10880729Y-12622722D02*
X10890253Y-12641769D01*
X10890253Y-12641769D02*
X10890253Y-12689388D01*
X10890253Y-12689388D02*
X10880729Y-12708436D01*
X10880729Y-12708436D02*
X10871205Y-12717960D01*
X10871205Y-12717960D02*
X10852158Y-12727484D01*
X10852158Y-12727484D02*
X10795015Y-12727484D01*
X10795015Y-12727484D02*
X10775967Y-12717960D01*
X10775967Y-12717960D02*
X10766444Y-12708436D01*
X11014063Y-12527484D02*
X11033110Y-12527484D01*
X11033110Y-12527484D02*
X11052158Y-12537008D01*
X11052158Y-12537008D02*
X11061682Y-12546531D01*
X11061682Y-12546531D02*
X11071205Y-12565579D01*
X11071205Y-12565579D02*
X11080729Y-12603674D01*
X11080729Y-12603674D02*
X11080729Y-12651293D01*
X11080729Y-12651293D02*
X11071205Y-12689388D01*
X11071205Y-12689388D02*
X11061682Y-12708436D01*
X11061682Y-12708436D02*
X11052158Y-12717960D01*
X11052158Y-12717960D02*
X11033110Y-12727484D01*
X11033110Y-12727484D02*
X11014063Y-12727484D01*
X11014063Y-12727484D02*
X10995015Y-12717960D01*
X10995015Y-12717960D02*
X10985491Y-12708436D01*
X10985491Y-12708436D02*
X10975967Y-12689388D01*
X10975967Y-12689388D02*
X10966444Y-12651293D01*
X10966444Y-12651293D02*
X10966444Y-12603674D01*
X10966444Y-12603674D02*
X10975967Y-12565579D01*
X10975967Y-12565579D02*
X10985491Y-12546531D01*
X10985491Y-12546531D02*
X10995015Y-12537008D01*
X10995015Y-12537008D02*
X11014063Y-12527484D01*
X11204539Y-12527484D02*
X11223586Y-12527484D01*
X11223586Y-12527484D02*
X11242634Y-12537008D01*
X11242634Y-12537008D02*
X11252158Y-12546531D01*
X11252158Y-12546531D02*
X11261682Y-12565579D01*
X11261682Y-12565579D02*
X11271205Y-12603674D01*
X11271205Y-12603674D02*
X11271205Y-12651293D01*
X11271205Y-12651293D02*
X11261682Y-12689388D01*
X11261682Y-12689388D02*
X11252158Y-12708436D01*
X11252158Y-12708436D02*
X11242634Y-12717960D01*
X11242634Y-12717960D02*
X11223586Y-12727484D01*
X11223586Y-12727484D02*
X11204539Y-12727484D01*
X11204539Y-12727484D02*
X11185491Y-12717960D01*
X11185491Y-12717960D02*
X11175967Y-12708436D01*
X11175967Y-12708436D02*
X11166444Y-12689388D01*
X11166444Y-12689388D02*
X11156920Y-12651293D01*
X11156920Y-12651293D02*
X11156920Y-12603674D01*
X11156920Y-12603674D02*
X11166444Y-12565579D01*
X11166444Y-12565579D02*
X11175967Y-12546531D01*
X11175967Y-12546531D02*
X11185491Y-12537008D01*
X11185491Y-12537008D02*
X11204539Y-12527484D01*
X11356920Y-12727484D02*
X11356920Y-12594150D01*
X11356920Y-12613198D02*
X11366443Y-12603674D01*
X11366443Y-12603674D02*
X11385491Y-12594150D01*
X11385491Y-12594150D02*
X11414063Y-12594150D01*
X11414063Y-12594150D02*
X11433110Y-12603674D01*
X11433110Y-12603674D02*
X11442634Y-12622722D01*
X11442634Y-12622722D02*
X11442634Y-12727484D01*
X11442634Y-12622722D02*
X11452158Y-12603674D01*
X11452158Y-12603674D02*
X11471205Y-12594150D01*
X11471205Y-12594150D02*
X11499777Y-12594150D01*
X11499777Y-12594150D02*
X11518824Y-12603674D01*
X11518824Y-12603674D02*
X11528348Y-12622722D01*
X11528348Y-12622722D02*
X11528348Y-12727484D01*
X11623586Y-12727484D02*
X11623586Y-12594150D01*
X11623586Y-12613198D02*
X11633110Y-12603674D01*
X11633110Y-12603674D02*
X11652158Y-12594150D01*
X11652158Y-12594150D02*
X11680729Y-12594150D01*
X11680729Y-12594150D02*
X11699777Y-12603674D01*
X11699777Y-12603674D02*
X11709301Y-12622722D01*
X11709301Y-12622722D02*
X11709301Y-12727484D01*
X11709301Y-12622722D02*
X11718824Y-12603674D01*
X11718824Y-12603674D02*
X11737872Y-12594150D01*
X11737872Y-12594150D02*
X11766443Y-12594150D01*
X11766443Y-12594150D02*
X11785491Y-12603674D01*
X11785491Y-12603674D02*
X11795015Y-12622722D01*
X11795015Y-12622722D02*
X11795015Y-12727484D01*
X12185491Y-12517960D02*
X12014063Y-12775103D01*
X12442634Y-12527484D02*
X12461682Y-12527484D01*
X12461682Y-12527484D02*
X12480729Y-12537008D01*
X12480729Y-12537008D02*
X12490253Y-12546531D01*
X12490253Y-12546531D02*
X12499777Y-12565579D01*
X12499777Y-12565579D02*
X12509301Y-12603674D01*
X12509301Y-12603674D02*
X12509301Y-12651293D01*
X12509301Y-12651293D02*
X12499777Y-12689388D01*
X12499777Y-12689388D02*
X12490253Y-12708436D01*
X12490253Y-12708436D02*
X12480729Y-12717960D01*
X12480729Y-12717960D02*
X12461682Y-12727484D01*
X12461682Y-12727484D02*
X12442634Y-12727484D01*
X12442634Y-12727484D02*
X12423586Y-12717960D01*
X12423586Y-12717960D02*
X12414063Y-12708436D01*
X12414063Y-12708436D02*
X12404539Y-12689388D01*
X12404539Y-12689388D02*
X12395015Y-12651293D01*
X12395015Y-12651293D02*
X12395015Y-12603674D01*
X12395015Y-12603674D02*
X12404539Y-12565579D01*
X12404539Y-12565579D02*
X12414063Y-12546531D01*
X12414063Y-12546531D02*
X12423586Y-12537008D01*
X12423586Y-12537008D02*
X12442634Y-12527484D01*
X12595015Y-12708436D02*
X12604539Y-12717960D01*
X12604539Y-12717960D02*
X12595015Y-12727484D01*
X12595015Y-12727484D02*
X12585491Y-12717960D01*
X12585491Y-12717960D02*
X12595015Y-12708436D01*
X12595015Y-12708436D02*
X12595015Y-12727484D01*
X12728348Y-12527484D02*
X12747396Y-12527484D01*
X12747396Y-12527484D02*
X12766444Y-12537008D01*
X12766444Y-12537008D02*
X12775967Y-12546531D01*
X12775967Y-12546531D02*
X12785491Y-12565579D01*
X12785491Y-12565579D02*
X12795015Y-12603674D01*
X12795015Y-12603674D02*
X12795015Y-12651293D01*
X12795015Y-12651293D02*
X12785491Y-12689388D01*
X12785491Y-12689388D02*
X12775967Y-12708436D01*
X12775967Y-12708436D02*
X12766444Y-12717960D01*
X12766444Y-12717960D02*
X12747396Y-12727484D01*
X12747396Y-12727484D02*
X12728348Y-12727484D01*
X12728348Y-12727484D02*
X12709301Y-12717960D01*
X12709301Y-12717960D02*
X12699777Y-12708436D01*
X12699777Y-12708436D02*
X12690253Y-12689388D01*
X12690253Y-12689388D02*
X12680729Y-12651293D01*
X12680729Y-12651293D02*
X12680729Y-12603674D01*
X12680729Y-12603674D02*
X12690253Y-12565579D01*
X12690253Y-12565579D02*
X12699777Y-12546531D01*
X12699777Y-12546531D02*
X12709301Y-12537008D01*
X12709301Y-12537008D02*
X12728348Y-12527484D01*
X12890253Y-12727484D02*
X12928348Y-12727484D01*
X12928348Y-12727484D02*
X12947396Y-12717960D01*
X12947396Y-12717960D02*
X12956920Y-12708436D01*
X12956920Y-12708436D02*
X12975967Y-12679865D01*
X12975967Y-12679865D02*
X12985491Y-12641769D01*
X12985491Y-12641769D02*
X12985491Y-12565579D01*
X12985491Y-12565579D02*
X12975967Y-12546531D01*
X12975967Y-12546531D02*
X12966444Y-12537008D01*
X12966444Y-12537008D02*
X12947396Y-12527484D01*
X12947396Y-12527484D02*
X12909301Y-12527484D01*
X12909301Y-12527484D02*
X12890253Y-12537008D01*
X12890253Y-12537008D02*
X12880729Y-12546531D01*
X12880729Y-12546531D02*
X12871206Y-12565579D01*
X12871206Y-12565579D02*
X12871206Y-12613198D01*
X12871206Y-12613198D02*
X12880729Y-12632246D01*
X12880729Y-12632246D02*
X12890253Y-12641769D01*
X12890253Y-12641769D02*
X12909301Y-12651293D01*
X12909301Y-12651293D02*
X12947396Y-12651293D01*
X12947396Y-12651293D02*
X12966444Y-12641769D01*
X12966444Y-12641769D02*
X12975967Y-12632246D01*
X12975967Y-12632246D02*
X12985491Y-12613198D01*
X13109301Y-12527484D02*
X13128348Y-12527484D01*
X13128348Y-12527484D02*
X13147396Y-12537008D01*
X13147396Y-12537008D02*
X13156920Y-12546531D01*
X13156920Y-12546531D02*
X13166444Y-12565579D01*
X13166444Y-12565579D02*
X13175967Y-12603674D01*
X13175967Y-12603674D02*
X13175967Y-12651293D01*
X13175967Y-12651293D02*
X13166444Y-12689388D01*
X13166444Y-12689388D02*
X13156920Y-12708436D01*
X13156920Y-12708436D02*
X13147396Y-12717960D01*
X13147396Y-12717960D02*
X13128348Y-12727484D01*
X13128348Y-12727484D02*
X13109301Y-12727484D01*
X13109301Y-12727484D02*
X13090253Y-12717960D01*
X13090253Y-12717960D02*
X13080729Y-12708436D01*
X13080729Y-12708436D02*
X13071206Y-12689388D01*
X13071206Y-12689388D02*
X13061682Y-12651293D01*
X13061682Y-12651293D02*
X13061682Y-12603674D01*
X13061682Y-12603674D02*
X13071206Y-12565579D01*
X13071206Y-12565579D02*
X13080729Y-12546531D01*
X13080729Y-12546531D02*
X13090253Y-12537008D01*
X13090253Y-12537008D02*
X13109301Y-12527484D01*
X13347396Y-12527484D02*
X13309301Y-12527484D01*
X13309301Y-12527484D02*
X13290253Y-12537008D01*
X13290253Y-12537008D02*
X13280729Y-12546531D01*
X13280729Y-12546531D02*
X13261682Y-12575103D01*
X13261682Y-12575103D02*
X13252158Y-12613198D01*
X13252158Y-12613198D02*
X13252158Y-12689388D01*
X13252158Y-12689388D02*
X13261682Y-12708436D01*
X13261682Y-12708436D02*
X13271206Y-12717960D01*
X13271206Y-12717960D02*
X13290253Y-12727484D01*
X13290253Y-12727484D02*
X13328348Y-12727484D01*
X13328348Y-12727484D02*
X13347396Y-12717960D01*
X13347396Y-12717960D02*
X13356920Y-12708436D01*
X13356920Y-12708436D02*
X13366444Y-12689388D01*
X13366444Y-12689388D02*
X13366444Y-12641769D01*
X13366444Y-12641769D02*
X13356920Y-12622722D01*
X13356920Y-12622722D02*
X13347396Y-12613198D01*
X13347396Y-12613198D02*
X13328348Y-12603674D01*
X13328348Y-12603674D02*
X13290253Y-12603674D01*
X13290253Y-12603674D02*
X13271206Y-12613198D01*
X13271206Y-12613198D02*
X13261682Y-12622722D01*
X13261682Y-12622722D02*
X13252158Y-12641769D01*
X13442634Y-12527484D02*
X13442634Y-12565579D01*
X13518825Y-12527484D02*
X13518825Y-12565579D01*
X13814063Y-12803674D02*
X13804539Y-12794150D01*
X13804539Y-12794150D02*
X13785491Y-12765579D01*
X13785491Y-12765579D02*
X13775968Y-12746531D01*
X13775968Y-12746531D02*
X13766444Y-12717960D01*
X13766444Y-12717960D02*
X13756920Y-12670341D01*
X13756920Y-12670341D02*
X13756920Y-12632246D01*
X13756920Y-12632246D02*
X13766444Y-12584627D01*
X13766444Y-12584627D02*
X13775968Y-12556055D01*
X13775968Y-12556055D02*
X13785491Y-12537008D01*
X13785491Y-12537008D02*
X13804539Y-12508436D01*
X13804539Y-12508436D02*
X13814063Y-12498912D01*
X13880729Y-12546531D02*
X13890253Y-12537008D01*
X13890253Y-12537008D02*
X13909301Y-12527484D01*
X13909301Y-12527484D02*
X13956920Y-12527484D01*
X13956920Y-12527484D02*
X13975968Y-12537008D01*
X13975968Y-12537008D02*
X13985491Y-12546531D01*
X13985491Y-12546531D02*
X13995015Y-12565579D01*
X13995015Y-12565579D02*
X13995015Y-12584627D01*
X13995015Y-12584627D02*
X13985491Y-12613198D01*
X13985491Y-12613198D02*
X13871206Y-12727484D01*
X13871206Y-12727484D02*
X13995015Y-12727484D01*
X14233110Y-12727484D02*
X14233110Y-12527484D01*
X14318825Y-12727484D02*
X14318825Y-12622722D01*
X14318825Y-12622722D02*
X14309301Y-12603674D01*
X14309301Y-12603674D02*
X14290253Y-12594150D01*
X14290253Y-12594150D02*
X14261682Y-12594150D01*
X14261682Y-12594150D02*
X14242634Y-12603674D01*
X14242634Y-12603674D02*
X14233110Y-12613198D01*
X14442634Y-12727484D02*
X14423587Y-12717960D01*
X14423587Y-12717960D02*
X14414063Y-12708436D01*
X14414063Y-12708436D02*
X14404539Y-12689388D01*
X14404539Y-12689388D02*
X14404539Y-12632246D01*
X14404539Y-12632246D02*
X14414063Y-12613198D01*
X14414063Y-12613198D02*
X14423587Y-12603674D01*
X14423587Y-12603674D02*
X14442634Y-12594150D01*
X14442634Y-12594150D02*
X14471206Y-12594150D01*
X14471206Y-12594150D02*
X14490253Y-12603674D01*
X14490253Y-12603674D02*
X14499777Y-12613198D01*
X14499777Y-12613198D02*
X14509301Y-12632246D01*
X14509301Y-12632246D02*
X14509301Y-12689388D01*
X14509301Y-12689388D02*
X14499777Y-12708436D01*
X14499777Y-12708436D02*
X14490253Y-12717960D01*
X14490253Y-12717960D02*
X14471206Y-12727484D01*
X14471206Y-12727484D02*
X14442634Y-12727484D01*
X14623587Y-12727484D02*
X14604539Y-12717960D01*
X14604539Y-12717960D02*
X14595015Y-12698912D01*
X14595015Y-12698912D02*
X14595015Y-12527484D01*
X14775968Y-12717960D02*
X14756920Y-12727484D01*
X14756920Y-12727484D02*
X14718825Y-12727484D01*
X14718825Y-12727484D02*
X14699777Y-12717960D01*
X14699777Y-12717960D02*
X14690253Y-12698912D01*
X14690253Y-12698912D02*
X14690253Y-12622722D01*
X14690253Y-12622722D02*
X14699777Y-12603674D01*
X14699777Y-12603674D02*
X14718825Y-12594150D01*
X14718825Y-12594150D02*
X14756920Y-12594150D01*
X14756920Y-12594150D02*
X14775968Y-12603674D01*
X14775968Y-12603674D02*
X14785491Y-12622722D01*
X14785491Y-12622722D02*
X14785491Y-12641769D01*
X14785491Y-12641769D02*
X14690253Y-12660817D01*
X14861682Y-12717960D02*
X14880730Y-12727484D01*
X14880730Y-12727484D02*
X14918825Y-12727484D01*
X14918825Y-12727484D02*
X14937872Y-12717960D01*
X14937872Y-12717960D02*
X14947396Y-12698912D01*
X14947396Y-12698912D02*
X14947396Y-12689388D01*
X14947396Y-12689388D02*
X14937872Y-12670341D01*
X14937872Y-12670341D02*
X14918825Y-12660817D01*
X14918825Y-12660817D02*
X14890253Y-12660817D01*
X14890253Y-12660817D02*
X14871206Y-12651293D01*
X14871206Y-12651293D02*
X14861682Y-12632246D01*
X14861682Y-12632246D02*
X14861682Y-12622722D01*
X14861682Y-12622722D02*
X14871206Y-12603674D01*
X14871206Y-12603674D02*
X14890253Y-12594150D01*
X14890253Y-12594150D02*
X14918825Y-12594150D01*
X14918825Y-12594150D02*
X14937872Y-12603674D01*
X15014063Y-12803674D02*
X15023587Y-12794150D01*
X15023587Y-12794150D02*
X15042634Y-12765579D01*
X15042634Y-12765579D02*
X15052158Y-12746531D01*
X15052158Y-12746531D02*
X15061682Y-12717960D01*
X15061682Y-12717960D02*
X15071206Y-12670341D01*
X15071206Y-12670341D02*
X15071206Y-12632246D01*
X15071206Y-12632246D02*
X15061682Y-12584627D01*
X15061682Y-12584627D02*
X15052158Y-12556055D01*
X15052158Y-12556055D02*
X15042634Y-12537008D01*
X15042634Y-12537008D02*
X15023587Y-12508436D01*
X15023587Y-12508436D02*
X15014063Y-12498912D01*
X15375968Y-12803674D02*
X15366444Y-12794150D01*
X15366444Y-12794150D02*
X15347396Y-12765579D01*
X15347396Y-12765579D02*
X15337872Y-12746531D01*
X15337872Y-12746531D02*
X15328349Y-12717960D01*
X15328349Y-12717960D02*
X15318825Y-12670341D01*
X15318825Y-12670341D02*
X15318825Y-12632246D01*
X15318825Y-12632246D02*
X15328349Y-12584627D01*
X15328349Y-12584627D02*
X15337872Y-12556055D01*
X15337872Y-12556055D02*
X15347396Y-12537008D01*
X15347396Y-12537008D02*
X15366444Y-12508436D01*
X15366444Y-12508436D02*
X15375968Y-12498912D01*
X15452158Y-12594150D02*
X15452158Y-12727484D01*
X15452158Y-12613198D02*
X15461682Y-12603674D01*
X15461682Y-12603674D02*
X15480730Y-12594150D01*
X15480730Y-12594150D02*
X15509301Y-12594150D01*
X15509301Y-12594150D02*
X15528349Y-12603674D01*
X15528349Y-12603674D02*
X15537872Y-12622722D01*
X15537872Y-12622722D02*
X15537872Y-12727484D01*
X15661682Y-12727484D02*
X15642634Y-12717960D01*
X15642634Y-12717960D02*
X15633111Y-12708436D01*
X15633111Y-12708436D02*
X15623587Y-12689388D01*
X15623587Y-12689388D02*
X15623587Y-12632246D01*
X15623587Y-12632246D02*
X15633111Y-12613198D01*
X15633111Y-12613198D02*
X15642634Y-12603674D01*
X15642634Y-12603674D02*
X15661682Y-12594150D01*
X15661682Y-12594150D02*
X15690253Y-12594150D01*
X15690253Y-12594150D02*
X15709301Y-12603674D01*
X15709301Y-12603674D02*
X15718825Y-12613198D01*
X15718825Y-12613198D02*
X15728349Y-12632246D01*
X15728349Y-12632246D02*
X15728349Y-12689388D01*
X15728349Y-12689388D02*
X15718825Y-12708436D01*
X15718825Y-12708436D02*
X15709301Y-12717960D01*
X15709301Y-12717960D02*
X15690253Y-12727484D01*
X15690253Y-12727484D02*
X15661682Y-12727484D01*
X15785492Y-12594150D02*
X15861682Y-12594150D01*
X15814063Y-12527484D02*
X15814063Y-12698912D01*
X15814063Y-12698912D02*
X15823587Y-12717960D01*
X15823587Y-12717960D02*
X15842634Y-12727484D01*
X15842634Y-12727484D02*
X15861682Y-12727484D01*
X16080730Y-12594150D02*
X16080730Y-12794150D01*
X16080730Y-12603674D02*
X16099777Y-12594150D01*
X16099777Y-12594150D02*
X16137873Y-12594150D01*
X16137873Y-12594150D02*
X16156920Y-12603674D01*
X16156920Y-12603674D02*
X16166444Y-12613198D01*
X16166444Y-12613198D02*
X16175968Y-12632246D01*
X16175968Y-12632246D02*
X16175968Y-12689388D01*
X16175968Y-12689388D02*
X16166444Y-12708436D01*
X16166444Y-12708436D02*
X16156920Y-12717960D01*
X16156920Y-12717960D02*
X16137873Y-12727484D01*
X16137873Y-12727484D02*
X16099777Y-12727484D01*
X16099777Y-12727484D02*
X16080730Y-12717960D01*
X16290253Y-12727484D02*
X16271206Y-12717960D01*
X16271206Y-12717960D02*
X16261682Y-12698912D01*
X16261682Y-12698912D02*
X16261682Y-12527484D01*
X16452158Y-12727484D02*
X16452158Y-12622722D01*
X16452158Y-12622722D02*
X16442634Y-12603674D01*
X16442634Y-12603674D02*
X16423587Y-12594150D01*
X16423587Y-12594150D02*
X16385492Y-12594150D01*
X16385492Y-12594150D02*
X16366444Y-12603674D01*
X16452158Y-12717960D02*
X16433111Y-12727484D01*
X16433111Y-12727484D02*
X16385492Y-12727484D01*
X16385492Y-12727484D02*
X16366444Y-12717960D01*
X16366444Y-12717960D02*
X16356920Y-12698912D01*
X16356920Y-12698912D02*
X16356920Y-12679865D01*
X16356920Y-12679865D02*
X16366444Y-12660817D01*
X16366444Y-12660817D02*
X16385492Y-12651293D01*
X16385492Y-12651293D02*
X16433111Y-12651293D01*
X16433111Y-12651293D02*
X16452158Y-12641769D01*
X16518825Y-12594150D02*
X16595015Y-12594150D01*
X16547396Y-12527484D02*
X16547396Y-12698912D01*
X16547396Y-12698912D02*
X16556920Y-12717960D01*
X16556920Y-12717960D02*
X16575968Y-12727484D01*
X16575968Y-12727484D02*
X16595015Y-12727484D01*
X16737873Y-12717960D02*
X16718825Y-12727484D01*
X16718825Y-12727484D02*
X16680730Y-12727484D01*
X16680730Y-12727484D02*
X16661682Y-12717960D01*
X16661682Y-12717960D02*
X16652158Y-12698912D01*
X16652158Y-12698912D02*
X16652158Y-12622722D01*
X16652158Y-12622722D02*
X16661682Y-12603674D01*
X16661682Y-12603674D02*
X16680730Y-12594150D01*
X16680730Y-12594150D02*
X16718825Y-12594150D01*
X16718825Y-12594150D02*
X16737873Y-12603674D01*
X16737873Y-12603674D02*
X16747396Y-12622722D01*
X16747396Y-12622722D02*
X16747396Y-12641769D01*
X16747396Y-12641769D02*
X16652158Y-12660817D01*
X16918825Y-12727484D02*
X16918825Y-12527484D01*
X16918825Y-12717960D02*
X16899777Y-12727484D01*
X16899777Y-12727484D02*
X16861682Y-12727484D01*
X16861682Y-12727484D02*
X16842635Y-12717960D01*
X16842635Y-12717960D02*
X16833111Y-12708436D01*
X16833111Y-12708436D02*
X16823587Y-12689388D01*
X16823587Y-12689388D02*
X16823587Y-12632246D01*
X16823587Y-12632246D02*
X16833111Y-12613198D01*
X16833111Y-12613198D02*
X16842635Y-12603674D01*
X16842635Y-12603674D02*
X16861682Y-12594150D01*
X16861682Y-12594150D02*
X16899777Y-12594150D01*
X16899777Y-12594150D02*
X16918825Y-12603674D01*
X16995016Y-12803674D02*
X17004539Y-12794150D01*
X17004539Y-12794150D02*
X17023587Y-12765579D01*
X17023587Y-12765579D02*
X17033111Y-12746531D01*
X17033111Y-12746531D02*
X17042635Y-12717960D01*
X17042635Y-12717960D02*
X17052158Y-12670341D01*
X17052158Y-12670341D02*
X17052158Y-12632246D01*
X17052158Y-12632246D02*
X17042635Y-12584627D01*
X17042635Y-12584627D02*
X17033111Y-12556055D01*
X17033111Y-12556055D02*
X17023587Y-12537008D01*
X17023587Y-12537008D02*
X17004539Y-12508436D01*
X17004539Y-12508436D02*
X16995016Y-12498912D01*
X10139000Y-12856000D02*
X10139000Y-13056000D01*
X10039000Y-12956000D02*
X10239000Y-12956000D01*
X10585491Y-12914150D02*
X10585491Y-13047484D01*
X10537872Y-12837960D02*
X10490253Y-12980817D01*
X10490253Y-12980817D02*
X10614063Y-12980817D01*
X10690253Y-13028436D02*
X10699777Y-13037960D01*
X10699777Y-13037960D02*
X10690253Y-13047484D01*
X10690253Y-13047484D02*
X10680729Y-13037960D01*
X10680729Y-13037960D02*
X10690253Y-13028436D01*
X10690253Y-13028436D02*
X10690253Y-13047484D01*
X10890253Y-13047484D02*
X10775967Y-13047484D01*
X10833110Y-13047484D02*
X10833110Y-12847484D01*
X10833110Y-12847484D02*
X10814063Y-12876055D01*
X10814063Y-12876055D02*
X10795015Y-12895103D01*
X10795015Y-12895103D02*
X10775967Y-12904627D01*
X11014063Y-12847484D02*
X11033110Y-12847484D01*
X11033110Y-12847484D02*
X11052158Y-12857008D01*
X11052158Y-12857008D02*
X11061682Y-12866531D01*
X11061682Y-12866531D02*
X11071205Y-12885579D01*
X11071205Y-12885579D02*
X11080729Y-12923674D01*
X11080729Y-12923674D02*
X11080729Y-12971293D01*
X11080729Y-12971293D02*
X11071205Y-13009388D01*
X11071205Y-13009388D02*
X11061682Y-13028436D01*
X11061682Y-13028436D02*
X11052158Y-13037960D01*
X11052158Y-13037960D02*
X11033110Y-13047484D01*
X11033110Y-13047484D02*
X11014063Y-13047484D01*
X11014063Y-13047484D02*
X10995015Y-13037960D01*
X10995015Y-13037960D02*
X10985491Y-13028436D01*
X10985491Y-13028436D02*
X10975967Y-13009388D01*
X10975967Y-13009388D02*
X10966444Y-12971293D01*
X10966444Y-12971293D02*
X10966444Y-12923674D01*
X10966444Y-12923674D02*
X10975967Y-12885579D01*
X10975967Y-12885579D02*
X10985491Y-12866531D01*
X10985491Y-12866531D02*
X10995015Y-12857008D01*
X10995015Y-12857008D02*
X11014063Y-12847484D01*
X11204539Y-12847484D02*
X11223586Y-12847484D01*
X11223586Y-12847484D02*
X11242634Y-12857008D01*
X11242634Y-12857008D02*
X11252158Y-12866531D01*
X11252158Y-12866531D02*
X11261682Y-12885579D01*
X11261682Y-12885579D02*
X11271205Y-12923674D01*
X11271205Y-12923674D02*
X11271205Y-12971293D01*
X11271205Y-12971293D02*
X11261682Y-13009388D01*
X11261682Y-13009388D02*
X11252158Y-13028436D01*
X11252158Y-13028436D02*
X11242634Y-13037960D01*
X11242634Y-13037960D02*
X11223586Y-13047484D01*
X11223586Y-13047484D02*
X11204539Y-13047484D01*
X11204539Y-13047484D02*
X11185491Y-13037960D01*
X11185491Y-13037960D02*
X11175967Y-13028436D01*
X11175967Y-13028436D02*
X11166444Y-13009388D01*
X11166444Y-13009388D02*
X11156920Y-12971293D01*
X11156920Y-12971293D02*
X11156920Y-12923674D01*
X11156920Y-12923674D02*
X11166444Y-12885579D01*
X11166444Y-12885579D02*
X11175967Y-12866531D01*
X11175967Y-12866531D02*
X11185491Y-12857008D01*
X11185491Y-12857008D02*
X11204539Y-12847484D01*
X11356920Y-13047484D02*
X11356920Y-12914150D01*
X11356920Y-12933198D02*
X11366443Y-12923674D01*
X11366443Y-12923674D02*
X11385491Y-12914150D01*
X11385491Y-12914150D02*
X11414063Y-12914150D01*
X11414063Y-12914150D02*
X11433110Y-12923674D01*
X11433110Y-12923674D02*
X11442634Y-12942722D01*
X11442634Y-12942722D02*
X11442634Y-13047484D01*
X11442634Y-12942722D02*
X11452158Y-12923674D01*
X11452158Y-12923674D02*
X11471205Y-12914150D01*
X11471205Y-12914150D02*
X11499777Y-12914150D01*
X11499777Y-12914150D02*
X11518824Y-12923674D01*
X11518824Y-12923674D02*
X11528348Y-12942722D01*
X11528348Y-12942722D02*
X11528348Y-13047484D01*
X11623586Y-13047484D02*
X11623586Y-12914150D01*
X11623586Y-12933198D02*
X11633110Y-12923674D01*
X11633110Y-12923674D02*
X11652158Y-12914150D01*
X11652158Y-12914150D02*
X11680729Y-12914150D01*
X11680729Y-12914150D02*
X11699777Y-12923674D01*
X11699777Y-12923674D02*
X11709301Y-12942722D01*
X11709301Y-12942722D02*
X11709301Y-13047484D01*
X11709301Y-12942722D02*
X11718824Y-12923674D01*
X11718824Y-12923674D02*
X11737872Y-12914150D01*
X11737872Y-12914150D02*
X11766443Y-12914150D01*
X11766443Y-12914150D02*
X11785491Y-12923674D01*
X11785491Y-12923674D02*
X11795015Y-12942722D01*
X11795015Y-12942722D02*
X11795015Y-13047484D01*
X12185491Y-12837960D02*
X12014063Y-13095103D01*
X12442634Y-12847484D02*
X12461682Y-12847484D01*
X12461682Y-12847484D02*
X12480729Y-12857008D01*
X12480729Y-12857008D02*
X12490253Y-12866531D01*
X12490253Y-12866531D02*
X12499777Y-12885579D01*
X12499777Y-12885579D02*
X12509301Y-12923674D01*
X12509301Y-12923674D02*
X12509301Y-12971293D01*
X12509301Y-12971293D02*
X12499777Y-13009388D01*
X12499777Y-13009388D02*
X12490253Y-13028436D01*
X12490253Y-13028436D02*
X12480729Y-13037960D01*
X12480729Y-13037960D02*
X12461682Y-13047484D01*
X12461682Y-13047484D02*
X12442634Y-13047484D01*
X12442634Y-13047484D02*
X12423586Y-13037960D01*
X12423586Y-13037960D02*
X12414063Y-13028436D01*
X12414063Y-13028436D02*
X12404539Y-13009388D01*
X12404539Y-13009388D02*
X12395015Y-12971293D01*
X12395015Y-12971293D02*
X12395015Y-12923674D01*
X12395015Y-12923674D02*
X12404539Y-12885579D01*
X12404539Y-12885579D02*
X12414063Y-12866531D01*
X12414063Y-12866531D02*
X12423586Y-12857008D01*
X12423586Y-12857008D02*
X12442634Y-12847484D01*
X12595015Y-13028436D02*
X12604539Y-13037960D01*
X12604539Y-13037960D02*
X12595015Y-13047484D01*
X12595015Y-13047484D02*
X12585491Y-13037960D01*
X12585491Y-13037960D02*
X12595015Y-13028436D01*
X12595015Y-13028436D02*
X12595015Y-13047484D01*
X12795015Y-13047484D02*
X12680729Y-13047484D01*
X12737872Y-13047484D02*
X12737872Y-12847484D01*
X12737872Y-12847484D02*
X12718825Y-12876055D01*
X12718825Y-12876055D02*
X12699777Y-12895103D01*
X12699777Y-12895103D02*
X12680729Y-12904627D01*
X12966444Y-12847484D02*
X12928348Y-12847484D01*
X12928348Y-12847484D02*
X12909301Y-12857008D01*
X12909301Y-12857008D02*
X12899777Y-12866531D01*
X12899777Y-12866531D02*
X12880729Y-12895103D01*
X12880729Y-12895103D02*
X12871206Y-12933198D01*
X12871206Y-12933198D02*
X12871206Y-13009388D01*
X12871206Y-13009388D02*
X12880729Y-13028436D01*
X12880729Y-13028436D02*
X12890253Y-13037960D01*
X12890253Y-13037960D02*
X12909301Y-13047484D01*
X12909301Y-13047484D02*
X12947396Y-13047484D01*
X12947396Y-13047484D02*
X12966444Y-13037960D01*
X12966444Y-13037960D02*
X12975967Y-13028436D01*
X12975967Y-13028436D02*
X12985491Y-13009388D01*
X12985491Y-13009388D02*
X12985491Y-12961769D01*
X12985491Y-12961769D02*
X12975967Y-12942722D01*
X12975967Y-12942722D02*
X12966444Y-12933198D01*
X12966444Y-12933198D02*
X12947396Y-12923674D01*
X12947396Y-12923674D02*
X12909301Y-12923674D01*
X12909301Y-12923674D02*
X12890253Y-12933198D01*
X12890253Y-12933198D02*
X12880729Y-12942722D01*
X12880729Y-12942722D02*
X12871206Y-12961769D01*
X13175967Y-13047484D02*
X13061682Y-13047484D01*
X13118825Y-13047484D02*
X13118825Y-12847484D01*
X13118825Y-12847484D02*
X13099777Y-12876055D01*
X13099777Y-12876055D02*
X13080729Y-12895103D01*
X13080729Y-12895103D02*
X13061682Y-12904627D01*
X13347396Y-12914150D02*
X13347396Y-13047484D01*
X13299777Y-12837960D02*
X13252158Y-12980817D01*
X13252158Y-12980817D02*
X13375967Y-12980817D01*
X13442634Y-12847484D02*
X13442634Y-12885579D01*
X13518825Y-12847484D02*
X13518825Y-12885579D01*
X13814063Y-13123674D02*
X13804539Y-13114150D01*
X13804539Y-13114150D02*
X13785491Y-13085579D01*
X13785491Y-13085579D02*
X13775968Y-13066531D01*
X13775968Y-13066531D02*
X13766444Y-13037960D01*
X13766444Y-13037960D02*
X13756920Y-12990341D01*
X13756920Y-12990341D02*
X13756920Y-12952246D01*
X13756920Y-12952246D02*
X13766444Y-12904627D01*
X13766444Y-12904627D02*
X13775968Y-12876055D01*
X13775968Y-12876055D02*
X13785491Y-12857008D01*
X13785491Y-12857008D02*
X13804539Y-12828436D01*
X13804539Y-12828436D02*
X13814063Y-12818912D01*
X13880729Y-12866531D02*
X13890253Y-12857008D01*
X13890253Y-12857008D02*
X13909301Y-12847484D01*
X13909301Y-12847484D02*
X13956920Y-12847484D01*
X13956920Y-12847484D02*
X13975968Y-12857008D01*
X13975968Y-12857008D02*
X13985491Y-12866531D01*
X13985491Y-12866531D02*
X13995015Y-12885579D01*
X13995015Y-12885579D02*
X13995015Y-12904627D01*
X13995015Y-12904627D02*
X13985491Y-12933198D01*
X13985491Y-12933198D02*
X13871206Y-13047484D01*
X13871206Y-13047484D02*
X13995015Y-13047484D01*
X14233110Y-13047484D02*
X14233110Y-12847484D01*
X14318825Y-13047484D02*
X14318825Y-12942722D01*
X14318825Y-12942722D02*
X14309301Y-12923674D01*
X14309301Y-12923674D02*
X14290253Y-12914150D01*
X14290253Y-12914150D02*
X14261682Y-12914150D01*
X14261682Y-12914150D02*
X14242634Y-12923674D01*
X14242634Y-12923674D02*
X14233110Y-12933198D01*
X14442634Y-13047484D02*
X14423587Y-13037960D01*
X14423587Y-13037960D02*
X14414063Y-13028436D01*
X14414063Y-13028436D02*
X14404539Y-13009388D01*
X14404539Y-13009388D02*
X14404539Y-12952246D01*
X14404539Y-12952246D02*
X14414063Y-12933198D01*
X14414063Y-12933198D02*
X14423587Y-12923674D01*
X14423587Y-12923674D02*
X14442634Y-12914150D01*
X14442634Y-12914150D02*
X14471206Y-12914150D01*
X14471206Y-12914150D02*
X14490253Y-12923674D01*
X14490253Y-12923674D02*
X14499777Y-12933198D01*
X14499777Y-12933198D02*
X14509301Y-12952246D01*
X14509301Y-12952246D02*
X14509301Y-13009388D01*
X14509301Y-13009388D02*
X14499777Y-13028436D01*
X14499777Y-13028436D02*
X14490253Y-13037960D01*
X14490253Y-13037960D02*
X14471206Y-13047484D01*
X14471206Y-13047484D02*
X14442634Y-13047484D01*
X14623587Y-13047484D02*
X14604539Y-13037960D01*
X14604539Y-13037960D02*
X14595015Y-13018912D01*
X14595015Y-13018912D02*
X14595015Y-12847484D01*
X14775968Y-13037960D02*
X14756920Y-13047484D01*
X14756920Y-13047484D02*
X14718825Y-13047484D01*
X14718825Y-13047484D02*
X14699777Y-13037960D01*
X14699777Y-13037960D02*
X14690253Y-13018912D01*
X14690253Y-13018912D02*
X14690253Y-12942722D01*
X14690253Y-12942722D02*
X14699777Y-12923674D01*
X14699777Y-12923674D02*
X14718825Y-12914150D01*
X14718825Y-12914150D02*
X14756920Y-12914150D01*
X14756920Y-12914150D02*
X14775968Y-12923674D01*
X14775968Y-12923674D02*
X14785491Y-12942722D01*
X14785491Y-12942722D02*
X14785491Y-12961769D01*
X14785491Y-12961769D02*
X14690253Y-12980817D01*
X14861682Y-13037960D02*
X14880730Y-13047484D01*
X14880730Y-13047484D02*
X14918825Y-13047484D01*
X14918825Y-13047484D02*
X14937872Y-13037960D01*
X14937872Y-13037960D02*
X14947396Y-13018912D01*
X14947396Y-13018912D02*
X14947396Y-13009388D01*
X14947396Y-13009388D02*
X14937872Y-12990341D01*
X14937872Y-12990341D02*
X14918825Y-12980817D01*
X14918825Y-12980817D02*
X14890253Y-12980817D01*
X14890253Y-12980817D02*
X14871206Y-12971293D01*
X14871206Y-12971293D02*
X14861682Y-12952246D01*
X14861682Y-12952246D02*
X14861682Y-12942722D01*
X14861682Y-12942722D02*
X14871206Y-12923674D01*
X14871206Y-12923674D02*
X14890253Y-12914150D01*
X14890253Y-12914150D02*
X14918825Y-12914150D01*
X14918825Y-12914150D02*
X14937872Y-12923674D01*
X15014063Y-13123674D02*
X15023587Y-13114150D01*
X15023587Y-13114150D02*
X15042634Y-13085579D01*
X15042634Y-13085579D02*
X15052158Y-13066531D01*
X15052158Y-13066531D02*
X15061682Y-13037960D01*
X15061682Y-13037960D02*
X15071206Y-12990341D01*
X15071206Y-12990341D02*
X15071206Y-12952246D01*
X15071206Y-12952246D02*
X15061682Y-12904627D01*
X15061682Y-12904627D02*
X15052158Y-12876055D01*
X15052158Y-12876055D02*
X15042634Y-12857008D01*
X15042634Y-12857008D02*
X15023587Y-12828436D01*
X15023587Y-12828436D02*
X15014063Y-12818912D01*
X15375968Y-13123674D02*
X15366444Y-13114150D01*
X15366444Y-13114150D02*
X15347396Y-13085579D01*
X15347396Y-13085579D02*
X15337872Y-13066531D01*
X15337872Y-13066531D02*
X15328349Y-13037960D01*
X15328349Y-13037960D02*
X15318825Y-12990341D01*
X15318825Y-12990341D02*
X15318825Y-12952246D01*
X15318825Y-12952246D02*
X15328349Y-12904627D01*
X15328349Y-12904627D02*
X15337872Y-12876055D01*
X15337872Y-12876055D02*
X15347396Y-12857008D01*
X15347396Y-12857008D02*
X15366444Y-12828436D01*
X15366444Y-12828436D02*
X15375968Y-12818912D01*
X15452158Y-12914150D02*
X15452158Y-13047484D01*
X15452158Y-12933198D02*
X15461682Y-12923674D01*
X15461682Y-12923674D02*
X15480730Y-12914150D01*
X15480730Y-12914150D02*
X15509301Y-12914150D01*
X15509301Y-12914150D02*
X15528349Y-12923674D01*
X15528349Y-12923674D02*
X15537872Y-12942722D01*
X15537872Y-12942722D02*
X15537872Y-13047484D01*
X15661682Y-13047484D02*
X15642634Y-13037960D01*
X15642634Y-13037960D02*
X15633111Y-13028436D01*
X15633111Y-13028436D02*
X15623587Y-13009388D01*
X15623587Y-13009388D02*
X15623587Y-12952246D01*
X15623587Y-12952246D02*
X15633111Y-12933198D01*
X15633111Y-12933198D02*
X15642634Y-12923674D01*
X15642634Y-12923674D02*
X15661682Y-12914150D01*
X15661682Y-12914150D02*
X15690253Y-12914150D01*
X15690253Y-12914150D02*
X15709301Y-12923674D01*
X15709301Y-12923674D02*
X15718825Y-12933198D01*
X15718825Y-12933198D02*
X15728349Y-12952246D01*
X15728349Y-12952246D02*
X15728349Y-13009388D01*
X15728349Y-13009388D02*
X15718825Y-13028436D01*
X15718825Y-13028436D02*
X15709301Y-13037960D01*
X15709301Y-13037960D02*
X15690253Y-13047484D01*
X15690253Y-13047484D02*
X15661682Y-13047484D01*
X15785492Y-12914150D02*
X15861682Y-12914150D01*
X15814063Y-12847484D02*
X15814063Y-13018912D01*
X15814063Y-13018912D02*
X15823587Y-13037960D01*
X15823587Y-13037960D02*
X15842634Y-13047484D01*
X15842634Y-13047484D02*
X15861682Y-13047484D01*
X16080730Y-12914150D02*
X16080730Y-13114150D01*
X16080730Y-12923674D02*
X16099777Y-12914150D01*
X16099777Y-12914150D02*
X16137873Y-12914150D01*
X16137873Y-12914150D02*
X16156920Y-12923674D01*
X16156920Y-12923674D02*
X16166444Y-12933198D01*
X16166444Y-12933198D02*
X16175968Y-12952246D01*
X16175968Y-12952246D02*
X16175968Y-13009388D01*
X16175968Y-13009388D02*
X16166444Y-13028436D01*
X16166444Y-13028436D02*
X16156920Y-13037960D01*
X16156920Y-13037960D02*
X16137873Y-13047484D01*
X16137873Y-13047484D02*
X16099777Y-13047484D01*
X16099777Y-13047484D02*
X16080730Y-13037960D01*
X16290253Y-13047484D02*
X16271206Y-13037960D01*
X16271206Y-13037960D02*
X16261682Y-13018912D01*
X16261682Y-13018912D02*
X16261682Y-12847484D01*
X16452158Y-13047484D02*
X16452158Y-12942722D01*
X16452158Y-12942722D02*
X16442634Y-12923674D01*
X16442634Y-12923674D02*
X16423587Y-12914150D01*
X16423587Y-12914150D02*
X16385492Y-12914150D01*
X16385492Y-12914150D02*
X16366444Y-12923674D01*
X16452158Y-13037960D02*
X16433111Y-13047484D01*
X16433111Y-13047484D02*
X16385492Y-13047484D01*
X16385492Y-13047484D02*
X16366444Y-13037960D01*
X16366444Y-13037960D02*
X16356920Y-13018912D01*
X16356920Y-13018912D02*
X16356920Y-12999865D01*
X16356920Y-12999865D02*
X16366444Y-12980817D01*
X16366444Y-12980817D02*
X16385492Y-12971293D01*
X16385492Y-12971293D02*
X16433111Y-12971293D01*
X16433111Y-12971293D02*
X16452158Y-12961769D01*
X16518825Y-12914150D02*
X16595015Y-12914150D01*
X16547396Y-12847484D02*
X16547396Y-13018912D01*
X16547396Y-13018912D02*
X16556920Y-13037960D01*
X16556920Y-13037960D02*
X16575968Y-13047484D01*
X16575968Y-13047484D02*
X16595015Y-13047484D01*
X16737873Y-13037960D02*
X16718825Y-13047484D01*
X16718825Y-13047484D02*
X16680730Y-13047484D01*
X16680730Y-13047484D02*
X16661682Y-13037960D01*
X16661682Y-13037960D02*
X16652158Y-13018912D01*
X16652158Y-13018912D02*
X16652158Y-12942722D01*
X16652158Y-12942722D02*
X16661682Y-12923674D01*
X16661682Y-12923674D02*
X16680730Y-12914150D01*
X16680730Y-12914150D02*
X16718825Y-12914150D01*
X16718825Y-12914150D02*
X16737873Y-12923674D01*
X16737873Y-12923674D02*
X16747396Y-12942722D01*
X16747396Y-12942722D02*
X16747396Y-12961769D01*
X16747396Y-12961769D02*
X16652158Y-12980817D01*
X16918825Y-13047484D02*
X16918825Y-12847484D01*
X16918825Y-13037960D02*
X16899777Y-13047484D01*
X16899777Y-13047484D02*
X16861682Y-13047484D01*
X16861682Y-13047484D02*
X16842635Y-13037960D01*
X16842635Y-13037960D02*
X16833111Y-13028436D01*
X16833111Y-13028436D02*
X16823587Y-13009388D01*
X16823587Y-13009388D02*
X16823587Y-12952246D01*
X16823587Y-12952246D02*
X16833111Y-12933198D01*
X16833111Y-12933198D02*
X16842635Y-12923674D01*
X16842635Y-12923674D02*
X16861682Y-12914150D01*
X16861682Y-12914150D02*
X16899777Y-12914150D01*
X16899777Y-12914150D02*
X16918825Y-12923674D01*
X16995016Y-13123674D02*
X17004539Y-13114150D01*
X17004539Y-13114150D02*
X17023587Y-13085579D01*
X17023587Y-13085579D02*
X17033111Y-13066531D01*
X17033111Y-13066531D02*
X17042635Y-13037960D01*
X17042635Y-13037960D02*
X17052158Y-12990341D01*
X17052158Y-12990341D02*
X17052158Y-12952246D01*
X17052158Y-12952246D02*
X17042635Y-12904627D01*
X17042635Y-12904627D02*
X17033111Y-12876055D01*
X17033111Y-12876055D02*
X17023587Y-12857008D01*
X17023587Y-12857008D02*
X17004539Y-12828436D01*
X17004539Y-12828436D02*
X16995016Y-12818912D01*
M02*
