G04 #@! TF.GenerationSoftware,KiCad,Pcbnew,9.0.5*
G04 #@! TF.CreationDate,2025-10-28T00:47:50+01:00*
G04 #@! TF.ProjectId,DoorControlModule,446f6f72-436f-46e7-9472-6f6c4d6f6475,rev?*
G04 #@! TF.SameCoordinates,Original*
G04 #@! TF.FileFunction,Soldermask,Top*
G04 #@! TF.FilePolarity,Negative*
%FSLAX46Y46*%
G04 Gerber Fmt 4.6, Leading zero omitted, Abs format (unit mm)*
G04 Created by KiCad (PCBNEW 9.0.5) date 2025-10-28 00:47:50*
%MOMM*%
%LPD*%
G01*
G04 APERTURE LIST*
G04 Aperture macros list*
%AMRoundRect*
0 Rectangle with rounded corners*
0 $1 Rounding radius*
0 $2 $3 $4 $5 $6 $7 $8 $9 X,Y pos of 4 corners*
0 Add a 4 corners polygon primitive as box body*
4,1,4,$2,$3,$4,$5,$6,$7,$8,$9,$2,$3,0*
0 Add four circle primitives for the rounded corners*
1,1,$1+$1,$2,$3*
1,1,$1+$1,$4,$5*
1,1,$1+$1,$6,$7*
1,1,$1+$1,$8,$9*
0 Add four rect primitives between the rounded corners*
20,1,$1+$1,$2,$3,$4,$5,0*
20,1,$1+$1,$4,$5,$6,$7,0*
20,1,$1+$1,$6,$7,$8,$9,0*
20,1,$1+$1,$8,$9,$2,$3,0*%
%AMFreePoly0*
4,1,23,0.500000,-0.750000,0.000000,-0.750000,0.000000,-0.745722,-0.065263,-0.745722,-0.191342,-0.711940,-0.304381,-0.646677,-0.396677,-0.554381,-0.461940,-0.441342,-0.495722,-0.315263,-0.495722,-0.250000,-0.500000,-0.250000,-0.500000,0.250000,-0.495722,0.250000,-0.495722,0.315263,-0.461940,0.441342,-0.396677,0.554381,-0.304381,0.646677,-0.191342,0.711940,-0.065263,0.745722,0.000000,0.745722,
0.000000,0.750000,0.500000,0.750000,0.500000,-0.750000,0.500000,-0.750000,$1*%
%AMFreePoly1*
4,1,23,0.000000,0.745722,0.065263,0.745722,0.191342,0.711940,0.304381,0.646677,0.396677,0.554381,0.461940,0.441342,0.495722,0.315263,0.495722,0.250000,0.500000,0.250000,0.500000,-0.250000,0.495722,-0.250000,0.495722,-0.315263,0.461940,-0.441342,0.396677,-0.554381,0.304381,-0.646677,0.191342,-0.711940,0.065263,-0.745722,0.000000,-0.745722,0.000000,-0.750000,-0.500000,-0.750000,
-0.500000,0.750000,0.000000,0.750000,0.000000,0.745722,0.000000,0.745722,$1*%
G04 Aperture macros list end*
%ADD10C,1.900000*%
%ADD11C,2.000000*%
%ADD12C,4.000000*%
%ADD13C,2.200000*%
%ADD14RoundRect,0.237500X-0.300000X-0.237500X0.300000X-0.237500X0.300000X0.237500X-0.300000X0.237500X0*%
%ADD15RoundRect,0.237500X0.250000X0.237500X-0.250000X0.237500X-0.250000X-0.237500X0.250000X-0.237500X0*%
%ADD16RoundRect,0.237500X-0.237500X0.250000X-0.237500X-0.250000X0.237500X-0.250000X0.237500X0.250000X0*%
%ADD17RoundRect,0.237500X0.237500X-0.300000X0.237500X0.300000X-0.237500X0.300000X-0.237500X-0.300000X0*%
%ADD18RoundRect,0.237500X0.300000X0.237500X-0.300000X0.237500X-0.300000X-0.237500X0.300000X-0.237500X0*%
%ADD19RoundRect,0.162500X-0.162500X-0.612500X0.162500X-0.612500X0.162500X0.612500X-0.162500X0.612500X0*%
%ADD20RoundRect,0.237500X-0.044194X-0.380070X0.380070X0.044194X0.044194X0.380070X-0.380070X-0.044194X0*%
%ADD21RoundRect,0.237500X-0.237500X0.300000X-0.237500X-0.300000X0.237500X-0.300000X0.237500X0.300000X0*%
%ADD22C,1.000000*%
%ADD23RoundRect,0.250000X-0.636396X-0.282843X-0.282843X-0.636396X0.636396X0.282843X0.282843X0.636396X0*%
%ADD24RoundRect,0.237500X0.237500X-0.250000X0.237500X0.250000X-0.237500X0.250000X-0.237500X-0.250000X0*%
%ADD25RoundRect,0.250000X0.088388X-0.477297X0.477297X-0.088388X-0.088388X0.477297X-0.477297X0.088388X0*%
%ADD26RoundRect,0.250000X0.450000X-0.325000X0.450000X0.325000X-0.450000X0.325000X-0.450000X-0.325000X0*%
%ADD27RoundRect,0.250000X0.550000X-1.250000X0.550000X1.250000X-0.550000X1.250000X-0.550000X-1.250000X0*%
%ADD28RoundRect,0.250000X-0.450000X0.325000X-0.450000X-0.325000X0.450000X-0.325000X0.450000X0.325000X0*%
%ADD29RoundRect,0.250000X0.250000X-0.250000X0.250000X0.250000X-0.250000X0.250000X-0.250000X-0.250000X0*%
%ADD30FreePoly0,90.000000*%
%ADD31FreePoly1,90.000000*%
%ADD32RoundRect,0.250000X0.300000X2.050000X-0.300000X2.050000X-0.300000X-2.050000X0.300000X-2.050000X0*%
%ADD33RoundRect,0.250000X-5.150000X4.450000X-5.150000X-4.450000X5.150000X-4.450000X5.150000X4.450000X0*%
%ADD34RoundRect,0.162500X0.612500X-0.162500X0.612500X0.162500X-0.612500X0.162500X-0.612500X-0.162500X0*%
%ADD35RoundRect,0.075000X0.530330X0.424264X0.424264X0.530330X-0.530330X-0.424264X-0.424264X-0.530330X0*%
%ADD36RoundRect,0.075000X0.424264X-0.530330X0.530330X-0.424264X-0.424264X0.530330X-0.530330X0.424264X0*%
%ADD37RoundRect,0.250000X-1.950000X-0.700000X1.950000X-0.700000X1.950000X0.700000X-1.950000X0.700000X0*%
%ADD38RoundRect,0.237500X-0.380070X0.044194X0.044194X-0.380070X0.380070X-0.044194X-0.044194X0.380070X0*%
%ADD39RoundRect,0.237500X-0.250000X-0.237500X0.250000X-0.237500X0.250000X0.237500X-0.250000X0.237500X0*%
%ADD40RoundRect,0.237500X-0.008839X-0.344715X0.344715X0.008839X0.008839X0.344715X-0.344715X-0.008839X0*%
%ADD41RoundRect,0.237500X0.380070X-0.044194X-0.044194X0.380070X-0.380070X0.044194X0.044194X-0.380070X0*%
%ADD42RoundRect,0.237500X0.044194X0.380070X-0.380070X-0.044194X-0.044194X-0.380070X0.380070X0.044194X0*%
%ADD43RoundRect,0.106250X-0.132583X0.282843X-0.282843X0.132583X0.132583X-0.282843X0.282843X-0.132583X0*%
%ADD44RoundRect,0.112500X0.112500X0.740000X-0.112500X0.740000X-0.112500X-0.740000X0.112500X-0.740000X0*%
%ADD45RoundRect,0.106250X0.106250X0.343750X-0.106250X0.343750X-0.106250X-0.343750X0.106250X-0.343750X0*%
%ADD46RoundRect,0.106250X-0.106250X-0.293750X0.106250X-0.293750X0.106250X0.293750X-0.106250X0.293750X0*%
%ADD47RoundRect,0.250000X-0.550000X1.500000X-0.550000X-1.500000X0.550000X-1.500000X0.550000X1.500000X0*%
%ADD48RoundRect,0.250000X1.825000X0.700000X-1.825000X0.700000X-1.825000X-0.700000X1.825000X-0.700000X0*%
%ADD49RoundRect,0.150000X0.625000X-0.150000X0.625000X0.150000X-0.625000X0.150000X-0.625000X-0.150000X0*%
%ADD50RoundRect,0.250000X0.650000X-0.350000X0.650000X0.350000X-0.650000X0.350000X-0.650000X-0.350000X0*%
%ADD51FreePoly0,270.000000*%
%ADD52FreePoly1,270.000000*%
%ADD53RoundRect,0.250000X-0.088388X0.548008X-0.548008X0.088388X0.088388X-0.548008X0.548008X-0.088388X0*%
%ADD54RoundRect,0.106250X-0.343750X0.106250X-0.343750X-0.106250X0.343750X-0.106250X0.343750X0.106250X0*%
%ADD55RoundRect,0.162500X-0.162500X-0.600000X0.162500X-0.600000X0.162500X0.600000X-0.162500X0.600000X0*%
G04 APERTURE END LIST*
G36*
X145681000Y-57808000D02*
G01*
X147181000Y-57808000D01*
X147181000Y-57508000D01*
X145681000Y-57508000D01*
X145681000Y-57808000D01*
G37*
G36*
X135751000Y-57508000D02*
G01*
X134251000Y-57508000D01*
X134251000Y-57808000D01*
X135751000Y-57808000D01*
X135751000Y-57508000D01*
G37*
D10*
X146700000Y-109100000D03*
X146700000Y-106600000D03*
X146700000Y-104100000D03*
X146700000Y-101600000D03*
X143000000Y-109100000D03*
X143000000Y-106600000D03*
X143000000Y-104100000D03*
X143000000Y-101600000D03*
X139500000Y-109100000D03*
X139500000Y-106600000D03*
X139500000Y-104100000D03*
X139500000Y-101600000D03*
X137000000Y-109100000D03*
X137000000Y-106600000D03*
X137000000Y-104100000D03*
X137000000Y-101600000D03*
X134500000Y-109100000D03*
X134500000Y-106600000D03*
X134500000Y-104100000D03*
X134500000Y-101600000D03*
X132000000Y-109100000D03*
X132000000Y-106600000D03*
X132000000Y-104100000D03*
X132000000Y-101600000D03*
X129500000Y-109100000D03*
X129500000Y-106600000D03*
X129500000Y-104100000D03*
X129500000Y-101600000D03*
X127000000Y-109100000D03*
X127000000Y-106600000D03*
X127000000Y-104100000D03*
X127000000Y-101600000D03*
D11*
X167750000Y-86200000D03*
D12*
X157250000Y-104450000D03*
D13*
X153150000Y-100600000D03*
X120550000Y-100600000D03*
D12*
X116450000Y-104450000D03*
D11*
X105950000Y-55200000D03*
D14*
X165708500Y-99822000D03*
X163983500Y-99822000D03*
D15*
X163933500Y-101346000D03*
X165758500Y-101346000D03*
D16*
X152908000Y-56364500D03*
X152908000Y-58189500D03*
D17*
X151384000Y-58139500D03*
X151384000Y-56414500D03*
D18*
X131672500Y-97028000D03*
X129947500Y-97028000D03*
D19*
X110998000Y-80874000D03*
X108458000Y-80874000D03*
X108458000Y-87274000D03*
X110998000Y-87274000D03*
D18*
X110082500Y-99822000D03*
X108357500Y-99822000D03*
D20*
X123977120Y-58902880D03*
X125196880Y-57683120D03*
D21*
X144399000Y-60351500D03*
X144399000Y-62076500D03*
D22*
X151892000Y-74676000D03*
D23*
X122560117Y-60457117D03*
X124327883Y-62224883D03*
D14*
X112929500Y-89662000D03*
X114654500Y-89662000D03*
D24*
X145288000Y-70635500D03*
X145288000Y-68810500D03*
D14*
X129439500Y-58547000D03*
X131164500Y-58547000D03*
D18*
X151357500Y-95504000D03*
X149632500Y-95504000D03*
D25*
X117150753Y-59403901D03*
X118777099Y-61030247D03*
X120085247Y-59722099D03*
X118458901Y-58095753D03*
D26*
X142621000Y-58683000D03*
X142621000Y-56633000D03*
D27*
X148082000Y-65954000D03*
X148082000Y-61554000D03*
D20*
X125882120Y-60807880D03*
X127101880Y-59588120D03*
D28*
X138811000Y-56633000D03*
X138811000Y-58683000D03*
D29*
X143510000Y-70973000D03*
X143510000Y-68473000D03*
D30*
X146431000Y-58308000D03*
D31*
X146431000Y-57008000D03*
D32*
X162912000Y-71691000D03*
X161212000Y-71691000D03*
X159512000Y-71691000D03*
X157812000Y-71691000D03*
X156112000Y-71691000D03*
D33*
X159512000Y-80841000D03*
D17*
X126619000Y-65378500D03*
X126619000Y-63653500D03*
D21*
X135509000Y-60351500D03*
X135509000Y-62076500D03*
D17*
X144399000Y-65378500D03*
X144399000Y-63653500D03*
D34*
X120498000Y-84328000D03*
X120498000Y-86868000D03*
X126898000Y-86868000D03*
X126898000Y-84328000D03*
D14*
X129947500Y-95504000D03*
X131672500Y-95504000D03*
D16*
X141732000Y-68810500D03*
X141732000Y-70635500D03*
D14*
X149632500Y-97028000D03*
X151357500Y-97028000D03*
D20*
X115722120Y-58013880D03*
X116941880Y-56794120D03*
D35*
X108852486Y-71010214D03*
X109206039Y-71363767D03*
X109559592Y-71717320D03*
X109913146Y-72070874D03*
X110266699Y-72424427D03*
X110620253Y-72777981D03*
X110973806Y-73131534D03*
X111327359Y-73485087D03*
X111680913Y-73838641D03*
X112034466Y-74192194D03*
X112388019Y-74545747D03*
X112741573Y-74899301D03*
X113095126Y-75252854D03*
X113448680Y-75606408D03*
X113802233Y-75959961D03*
X114155786Y-76313514D03*
D36*
X116984214Y-76313514D03*
X117337767Y-75959961D03*
X117691320Y-75606408D03*
X118044874Y-75252854D03*
X118398427Y-74899301D03*
X118751981Y-74545747D03*
X119105534Y-74192194D03*
X119459087Y-73838641D03*
X119812641Y-73485087D03*
X120166194Y-73131534D03*
X120519747Y-72777981D03*
X120873301Y-72424427D03*
X121226854Y-72070874D03*
X121580408Y-71717320D03*
X121933961Y-71363767D03*
X122287514Y-71010214D03*
D35*
X122287514Y-68181786D03*
X121933961Y-67828233D03*
X121580408Y-67474680D03*
X121226854Y-67121126D03*
X120873301Y-66767573D03*
X120519747Y-66414019D03*
X120166194Y-66060466D03*
X119812641Y-65706913D03*
X119459087Y-65353359D03*
X119105534Y-64999806D03*
X118751981Y-64646253D03*
X118398427Y-64292699D03*
X118044874Y-63939146D03*
X117691320Y-63585592D03*
X117337767Y-63232039D03*
X116984214Y-62878486D03*
D36*
X114155786Y-62878486D03*
X113802233Y-63232039D03*
X113448680Y-63585592D03*
X113095126Y-63939146D03*
X112741573Y-64292699D03*
X112388019Y-64646253D03*
X112034466Y-64999806D03*
X111680913Y-65353359D03*
X111327359Y-65706913D03*
X110973806Y-66060466D03*
X110620253Y-66414019D03*
X110266699Y-66767573D03*
X109913146Y-67121126D03*
X109559592Y-67474680D03*
X109206039Y-67828233D03*
X108852486Y-68181786D03*
D37*
X155162000Y-61722000D03*
X163862000Y-61722000D03*
D14*
X142774500Y-66929000D03*
X144499500Y-66929000D03*
D38*
X120167120Y-57175120D03*
X121386880Y-58394880D03*
D24*
X144399000Y-58570500D03*
X144399000Y-56745500D03*
D14*
X108357500Y-89662000D03*
X110082500Y-89662000D03*
D39*
X111760000Y-99822000D03*
X113585000Y-99822000D03*
D40*
X109082765Y-61859235D03*
X110373235Y-60568765D03*
D27*
X130302000Y-65954000D03*
X130302000Y-61554000D03*
D16*
X137033000Y-56745500D03*
X137033000Y-58570500D03*
D41*
X109575880Y-74523880D03*
X108356120Y-73304120D03*
D42*
X114528880Y-59207120D03*
X113309120Y-60426880D03*
D43*
X126209157Y-69382472D03*
X125643472Y-69948157D03*
X126774843Y-71079528D03*
X127340528Y-70513843D03*
D20*
X121716520Y-74777880D03*
X122936280Y-73558120D03*
D44*
X120773000Y-97224000D03*
X121423000Y-97224000D03*
X122073000Y-97224000D03*
X122723000Y-97224000D03*
X123373000Y-97224000D03*
X124023000Y-97224000D03*
X124673000Y-97224000D03*
X125323000Y-97224000D03*
X125973000Y-97224000D03*
X126623000Y-97224000D03*
X126623000Y-90228000D03*
X125973000Y-90228000D03*
X125323000Y-90228000D03*
X124673000Y-90228000D03*
X124023000Y-90228000D03*
X123373000Y-90228000D03*
X122723000Y-90228000D03*
X122073000Y-90228000D03*
X121423000Y-90228000D03*
X120773000Y-90228000D03*
D14*
X133884500Y-66929000D03*
X135609500Y-66929000D03*
D45*
X110858000Y-76962000D03*
X110058000Y-76962000D03*
X109258000Y-76962000D03*
X108458000Y-76962000D03*
X108458000Y-78662000D03*
X109258000Y-78662000D03*
X110058000Y-78662000D03*
X110858000Y-78662000D03*
D39*
X111760000Y-101346000D03*
X113585000Y-101346000D03*
D37*
X155162000Y-92964000D03*
X163862000Y-92964000D03*
D21*
X118872000Y-89815500D03*
X118872000Y-91540500D03*
D46*
X117837000Y-95542000D03*
X118637000Y-95542000D03*
X118637000Y-93942000D03*
X117837000Y-93942000D03*
D47*
X146812000Y-74797000D03*
X146812000Y-80397000D03*
D27*
X139192000Y-65954000D03*
X139192000Y-61554000D03*
D42*
X112115880Y-61620120D03*
X110896120Y-62839880D03*
D48*
X137968000Y-89154000D03*
X131018000Y-89154000D03*
X150160000Y-89154000D03*
X143210000Y-89154000D03*
D24*
X142875000Y-65452000D03*
X142875000Y-63627000D03*
D49*
X114861000Y-81820000D03*
X114861000Y-82820000D03*
X114861000Y-83820000D03*
X114861000Y-84820000D03*
X114861000Y-85820000D03*
D50*
X117386000Y-80520000D03*
X117386000Y-87120000D03*
D42*
X109575880Y-64160120D03*
X108356120Y-65379880D03*
D51*
X135001000Y-57008000D03*
D52*
X135001000Y-58308000D03*
D17*
X165100000Y-71474500D03*
X165100000Y-69749500D03*
D24*
X133986414Y-65452000D03*
X133986414Y-63627000D03*
D53*
X110198784Y-57441216D03*
X108749216Y-58890784D03*
D47*
X129032000Y-74797000D03*
X129032000Y-80397000D03*
D22*
X143891000Y-96266000D03*
D54*
X129452000Y-68777000D03*
X129452000Y-69577000D03*
X129452000Y-70377000D03*
X129452000Y-71177000D03*
X131152000Y-71177000D03*
X131152000Y-70377000D03*
X131152000Y-69577000D03*
X131152000Y-68777000D03*
D18*
X150341500Y-68453000D03*
X148616500Y-68453000D03*
X133196500Y-111252000D03*
X131471500Y-111252000D03*
D47*
X137922000Y-74797000D03*
X137922000Y-80397000D03*
D18*
X129894500Y-111252000D03*
X128169500Y-111252000D03*
D24*
X146812000Y-70635500D03*
X146812000Y-68810500D03*
D21*
X153924000Y-69749500D03*
X153924000Y-71474500D03*
X140208000Y-68860500D03*
X140208000Y-70585500D03*
D18*
X110082500Y-101346000D03*
X108357500Y-101346000D03*
D17*
X135509000Y-65378500D03*
X135509000Y-63653500D03*
D55*
X115570000Y-92030000D03*
X114300000Y-92030000D03*
X113030000Y-92030000D03*
X111760000Y-92030000D03*
X110490000Y-92030000D03*
X109220000Y-92030000D03*
X107950000Y-92030000D03*
X107950000Y-97454000D03*
X109220000Y-97454000D03*
X110490000Y-97454000D03*
X111760000Y-97454000D03*
X113030000Y-97454000D03*
X114300000Y-97454000D03*
X115570000Y-97454000D03*
G36*
X167249749Y-51700018D02*
G01*
X167250239Y-51700021D01*
X167256083Y-51700074D01*
X167256344Y-51700077D01*
X167402524Y-51701871D01*
X167404273Y-51701911D01*
X167444605Y-51703272D01*
X167448101Y-51703466D01*
X167488254Y-51706552D01*
X167489997Y-51706704D01*
X167787412Y-51735997D01*
X167789400Y-51736218D01*
X167835114Y-51741856D01*
X167839071Y-51742443D01*
X167884464Y-51750319D01*
X167886431Y-51750685D01*
X168173339Y-51807755D01*
X168175296Y-51808169D01*
X168220260Y-51818266D01*
X168224139Y-51819238D01*
X168268551Y-51831528D01*
X168270473Y-51832085D01*
X168550412Y-51917004D01*
X168552319Y-51917608D01*
X168596063Y-51932059D01*
X168599830Y-51933407D01*
X168642837Y-51949997D01*
X168644693Y-51950740D01*
X168914942Y-52062679D01*
X168916782Y-52063467D01*
X168958904Y-52082139D01*
X168962520Y-52083850D01*
X169003704Y-52104581D01*
X169005479Y-52105501D01*
X169263434Y-52243381D01*
X169265186Y-52244346D01*
X169305288Y-52267063D01*
X169308720Y-52269120D01*
X169347642Y-52293768D01*
X169349318Y-52294858D01*
X169592554Y-52457383D01*
X169594203Y-52458515D01*
X169631890Y-52485057D01*
X169635103Y-52487439D01*
X169671417Y-52515778D01*
X169672979Y-52517029D01*
X169899097Y-52702600D01*
X169900628Y-52703887D01*
X169935527Y-52733991D01*
X169938490Y-52736677D01*
X169971885Y-52768471D01*
X169973317Y-52769869D01*
X170180130Y-52976682D01*
X170181528Y-52978114D01*
X170213322Y-53011509D01*
X170216008Y-53014472D01*
X170246112Y-53049371D01*
X170247399Y-53050902D01*
X170432970Y-53277020D01*
X170434221Y-53278582D01*
X170462560Y-53314896D01*
X170464942Y-53318109D01*
X170491484Y-53355796D01*
X170492616Y-53357445D01*
X170655141Y-53600681D01*
X170656231Y-53602357D01*
X170680879Y-53641279D01*
X170682936Y-53644711D01*
X170705653Y-53684813D01*
X170706618Y-53686565D01*
X170844498Y-53944520D01*
X170845418Y-53946295D01*
X170866149Y-53987479D01*
X170867860Y-53991095D01*
X170886532Y-54033217D01*
X170887320Y-54035057D01*
X170999259Y-54305306D01*
X171000002Y-54307162D01*
X171016592Y-54350169D01*
X171017940Y-54353936D01*
X171032391Y-54397680D01*
X171032995Y-54399587D01*
X171117914Y-54679526D01*
X171118471Y-54681448D01*
X171130761Y-54725860D01*
X171131733Y-54729739D01*
X171141830Y-54774703D01*
X171142244Y-54776660D01*
X171199314Y-55063568D01*
X171199680Y-55065535D01*
X171207556Y-55110928D01*
X171208143Y-55114885D01*
X171213781Y-55160599D01*
X171214002Y-55162587D01*
X171243295Y-55460002D01*
X171243447Y-55461745D01*
X171246533Y-55501898D01*
X171246727Y-55505394D01*
X171248088Y-55545726D01*
X171248128Y-55547475D01*
X171249922Y-55693611D01*
X171249925Y-55693877D01*
X171249978Y-55699765D01*
X171249981Y-55700236D01*
X171250000Y-55706122D01*
X171250000Y-115695990D01*
X171249608Y-115703979D01*
X171231571Y-115887103D01*
X171228454Y-115902772D01*
X171176210Y-116075000D01*
X171170096Y-116089761D01*
X171085252Y-116248494D01*
X171076375Y-116261778D01*
X170962199Y-116400902D01*
X170950902Y-116412199D01*
X170811778Y-116526375D01*
X170798494Y-116535252D01*
X170639761Y-116620096D01*
X170625000Y-116626210D01*
X170452772Y-116678454D01*
X170437103Y-116681571D01*
X170253980Y-116699608D01*
X170245991Y-116700000D01*
X168136009Y-116700000D01*
X168128020Y-116699608D01*
X167944896Y-116681571D01*
X167929227Y-116678454D01*
X167756999Y-116626210D01*
X167742238Y-116620096D01*
X167583505Y-116535252D01*
X167570221Y-116526375D01*
X167431097Y-116412199D01*
X167419800Y-116400902D01*
X167305624Y-116261778D01*
X167296747Y-116248494D01*
X167211903Y-116089761D01*
X167205789Y-116075000D01*
X167153545Y-115902772D01*
X167150428Y-115887102D01*
X167132392Y-115703978D01*
X167132000Y-115695990D01*
X167132000Y-56118002D01*
X167112784Y-55922908D01*
X167112784Y-55922907D01*
X167055878Y-55735314D01*
X166963470Y-55562431D01*
X166963465Y-55562424D01*
X166839106Y-55410893D01*
X166687575Y-55286534D01*
X166687568Y-55286529D01*
X166514685Y-55194121D01*
X166327092Y-55137215D01*
X166131998Y-55118000D01*
X107553002Y-55118000D01*
X107357908Y-55137215D01*
X107357907Y-55137215D01*
X107170314Y-55194121D01*
X106997431Y-55286529D01*
X106997424Y-55286534D01*
X106845893Y-55410893D01*
X106721534Y-55562424D01*
X106721529Y-55562431D01*
X106629121Y-55735314D01*
X106572215Y-55922907D01*
X106572215Y-55922908D01*
X106553000Y-56118002D01*
X106553000Y-115695990D01*
X106552608Y-115703979D01*
X106534571Y-115887103D01*
X106531454Y-115902772D01*
X106479210Y-116075000D01*
X106473096Y-116089761D01*
X106388252Y-116248494D01*
X106379375Y-116261778D01*
X106265199Y-116400902D01*
X106253902Y-116412199D01*
X106114778Y-116526375D01*
X106101494Y-116535252D01*
X105942761Y-116620096D01*
X105928000Y-116626210D01*
X105755772Y-116678454D01*
X105740103Y-116681571D01*
X105556980Y-116699608D01*
X105548991Y-116700000D01*
X103454009Y-116700000D01*
X103446020Y-116699608D01*
X103262896Y-116681571D01*
X103247227Y-116678454D01*
X103074999Y-116626210D01*
X103060238Y-116620096D01*
X102901505Y-116535252D01*
X102888221Y-116526375D01*
X102749097Y-116412199D01*
X102737800Y-116400902D01*
X102623624Y-116261778D01*
X102614747Y-116248494D01*
X102529903Y-116089761D01*
X102523789Y-116075000D01*
X102471545Y-115902772D01*
X102468428Y-115887102D01*
X102450392Y-115703978D01*
X102450000Y-115695990D01*
X102450000Y-55706136D01*
X102450018Y-55700250D01*
X102450021Y-55699752D01*
X102450075Y-55693864D01*
X102450078Y-55693611D01*
X102451871Y-55547475D01*
X102451911Y-55545726D01*
X102453272Y-55505394D01*
X102453466Y-55501898D01*
X102456552Y-55461745D01*
X102456704Y-55460002D01*
X102485997Y-55162587D01*
X102486218Y-55160599D01*
X102491856Y-55114885D01*
X102492443Y-55110928D01*
X102500319Y-55065535D01*
X102500685Y-55063568D01*
X102557755Y-54776660D01*
X102558169Y-54774703D01*
X102568266Y-54729739D01*
X102569238Y-54725860D01*
X102581528Y-54681448D01*
X102582085Y-54679526D01*
X102667004Y-54399587D01*
X102667608Y-54397680D01*
X102682059Y-54353936D01*
X102683407Y-54350169D01*
X102699997Y-54307162D01*
X102700740Y-54305306D01*
X102812679Y-54035057D01*
X102813467Y-54033217D01*
X102832139Y-53991095D01*
X102833850Y-53987479D01*
X102854581Y-53946295D01*
X102855501Y-53944520D01*
X102993381Y-53686565D01*
X102994346Y-53684813D01*
X103017063Y-53644711D01*
X103019120Y-53641279D01*
X103043768Y-53602357D01*
X103044858Y-53600681D01*
X103207383Y-53357445D01*
X103208515Y-53355796D01*
X103235057Y-53318109D01*
X103237439Y-53314896D01*
X103265778Y-53278582D01*
X103267029Y-53277020D01*
X103452600Y-53050902D01*
X103453887Y-53049371D01*
X103483991Y-53014472D01*
X103486677Y-53011509D01*
X103518471Y-52978114D01*
X103519869Y-52976682D01*
X103726682Y-52769869D01*
X103728114Y-52768471D01*
X103761509Y-52736677D01*
X103764472Y-52733991D01*
X103799371Y-52703887D01*
X103800902Y-52702600D01*
X104027020Y-52517029D01*
X104028582Y-52515778D01*
X104064896Y-52487439D01*
X104068109Y-52485057D01*
X104105796Y-52458515D01*
X104107445Y-52457383D01*
X104350681Y-52294858D01*
X104352357Y-52293768D01*
X104391279Y-52269120D01*
X104394711Y-52267063D01*
X104434813Y-52244346D01*
X104436565Y-52243381D01*
X104694520Y-52105501D01*
X104696295Y-52104581D01*
X104737479Y-52083850D01*
X104741095Y-52082139D01*
X104783217Y-52063467D01*
X104785057Y-52062679D01*
X105055306Y-51950740D01*
X105057162Y-51949997D01*
X105100169Y-51933407D01*
X105103936Y-51932059D01*
X105147680Y-51917608D01*
X105149587Y-51917004D01*
X105429526Y-51832085D01*
X105431448Y-51831528D01*
X105475860Y-51819238D01*
X105479739Y-51818266D01*
X105524703Y-51808169D01*
X105526660Y-51807755D01*
X105813568Y-51750685D01*
X105815535Y-51750319D01*
X105860928Y-51742443D01*
X105864885Y-51741856D01*
X105910599Y-51736218D01*
X105912587Y-51735997D01*
X106210002Y-51706704D01*
X106211745Y-51706552D01*
X106251898Y-51703466D01*
X106255394Y-51703272D01*
X106295726Y-51701911D01*
X106297475Y-51701871D01*
X106443655Y-51700077D01*
X106443916Y-51700074D01*
X106449760Y-51700021D01*
X106450250Y-51700018D01*
X106456136Y-51700000D01*
X167243864Y-51700000D01*
X167249749Y-51700018D01*
G37*
M02*
